<svg xmlns="http://www.w3.org/2000/svg" viewBox="0 0 288 288" width="288" height="288">
	<style>
		tspan { white-space:pre }
		.shp0 { fill: #ffffff } 
	</style>
	<g id="SvgjsG1024">
		<g id="Layer">
			<path id="Layer" class="shp0" d="M220.82 45.43C220.91 45.53 220.98 45.67 221.08 45.71C228.6 48.85 230.67 51.87 230.68 59.99C230.7 84.34 230.68 108.68 230.68 133.03C230.68 133.6 230.68 134.17 230.68 135.06C229.99 134.62 229.57 134.36 229.16 134.09C226.08 132.06 223.05 129.93 219.88 128.05C218.68 127.34 218.28 126.62 218.29 125.28C218.34 111.95 218.32 98.62 218.32 85.29C218.32 84.51 218.32 83.73 218.32 82.78C164.7 82.78 111.23 82.78 57.59 82.78C57.59 127.96 57.59 173.17 57.59 218.64C58.4 218.67 59.22 218.74 60.05 218.74C81.56 218.75 103.07 218.76 124.58 218.71C126.17 218.71 126.98 219.21 127.79 220.59C129.83 224.1 132.13 227.46 134.48 231.11C133.68 231.11 132.99 231.11 132.3 231.11C104.06 231.11 75.82 231.11 47.58 231.11C46.72 231.11 45.86 231.13 45.01 231.15C45.01 172.54 45.01 113.93 45.01 55.32C45.27 54.75 45.57 54.18 45.79 53.59C47.01 50.38 49.15 48.03 52.27 46.59C53.14 46.19 54.03 45.81 54.91 45.42C110.21 45.43 165.52 45.43 220.82 45.43Z" />
			<path id="Layer" fill-rule="evenodd" class="shp0" d="M182.02 243.43C179.56 242.96 177.09 242.56 174.66 242C150.6 236.39 132.82 215.19 131.72 190.83C130.57 165.32 146.14 142.61 170.13 134.82C203.26 124.05 237.92 145.92 242.6 180.53C242.69 181.18 242.87 181.81 243 182.45C243 186.01 243 189.58 243 193.14C242.87 193.71 242.7 194.28 242.62 194.86C239.54 218.06 222.83 236.59 200.05 242C197.63 242.57 195.16 242.96 192.71 243.43C189.14 243.43 185.58 243.43 182.02 243.43ZM180.8 142.64C180.8 154.98 180.8 167.22 180.8 179.74C168.3 179.74 156.02 179.74 143.78 179.74C143.78 184.23 143.78 188.43 143.78 192.84C156.14 192.84 168.38 192.84 180.83 192.84C180.83 205.17 180.83 217.27 180.83 229.42C185.16 229.42 189.27 229.42 193.6 229.42C193.6 217.17 193.6 205.08 193.6 192.75C206.05 192.75 218.28 192.75 230.52 192.75C230.52 188.27 230.52 184.03 230.52 179.57C218.13 179.57 205.9 179.57 193.44 179.57C193.44 167.12 193.44 154.89 193.44 142.64C189.14 142.64 185.08 142.64 180.8 142.64Z" />
			<path id="Layer" class="shp0" d="M119.42 95.08C148.2 95.08 176.87 95.08 205.73 95.08C205.73 104.07 205.73 113.05 205.73 122.03C201.64 121.28 197.64 120.55 193.49 119.79C193.49 115.73 193.49 111.66 193.49 107.45C172.87 107.45 152.39 107.45 131.8 107.45C131.8 111.54 131.8 115.52 131.8 119.74C148 119.74 164.1 119.74 180.19 119.74C180.19 119.8 180.18 119.86 180.18 119.92C176.78 120.6 173.36 121.17 170 122C162.63 123.83 155.85 127.03 149.52 131.2C148.84 131.64 147.98 132.08 147.2 132.08C138.3 132.15 129.39 132.13 120.48 132.13C120.17 132.13 119.85 132.04 119.43 131.98C119.42 119.66 119.42 107.43 119.42 95.08ZM69.89 119.61C69.89 115.56 69.89 111.63 69.89 107.5C82.16 107.5 94.38 107.5 106.76 107.5C106.76 111.5 106.76 115.48 106.76 119.61C94.47 119.61 82.24 119.61 69.89 119.61ZM69.89 181.49C69.89 177.46 69.89 173.52 69.89 169.42C82.14 169.42 94.37 169.42 106.76 169.42C106.76 173.39 106.76 177.37 106.76 181.49C94.48 181.49 82.25 181.49 69.89 181.49Z" />
		</g>
	</g>
</svg>