<svg xmlns="http://www.w3.org/2000/svg" viewBox="0 0 288 288" width="288" height="288">
	<style>
		tspan { white-space:pre }
		.shp0 { fill: #ffffff } 
	</style>
	<g id="SvgjsG1018">
		<g id="Layer">
			<g id="Layer">
				<g id="Layer">
					<path id="Layer" class="shp0" d="M220.97 45.83C221.47 46.04 221.98 46.3 222.48 46.48C227.59 48.2 230.94 52.67 230.94 58C230.98 83.38 230.94 108.76 230.94 134.17C230.94 134.46 230.9 134.78 230.9 135.22C227.95 133.24 225.32 131 222.3 129.56C219.28 128.12 218.56 126.22 218.59 123.01C218.81 110.52 218.7 98.03 218.7 85.54C218.7 84.74 218.7 83.99 218.7 83.05C165.06 83.05 111.49 83.05 57.82 83.05C57.82 128.38 57.82 173.63 57.82 219.13C58.79 219.13 59.69 219.13 60.55 219.13C82.08 219.13 103.61 219.13 125.14 219.1C126.54 219.1 127.22 219.53 127.94 220.75C130.03 224.28 132.34 227.7 134.71 231.41C134.06 231.41 133.42 231.41 132.77 231.41C104.47 231.41 76.18 231.41 47.92 231.41C47.05 231.41 46.22 231.44 45.4 231.44C45.4 172.91 45.4 114.41 45.4 55.87C46.62 52.52 48.13 49.36 51.48 47.59C52.74 46.91 54.11 46.4 55.44 45.83C110.63 45.83 165.78 45.83 220.97 45.83Z" />
					<path id="Layer" fill-rule="evenodd" class="shp0" d="M183.06 243.83C180.29 243.29 177.52 242.86 174.78 242.24C152.03 237.02 134.64 217.15 132.37 193.93C129.56 164.77 148.54 139.21 177.37 133.42C206.68 127.51 236.56 147.56 242.21 176.9C242.6 179.1 243 181.3 243.4 183.49C243.4 186.59 243.4 189.68 243.4 192.78C243.22 193.72 243 194.65 242.89 195.59C239.8 218.41 222.91 236.99 200.45 242.28C197.75 242.89 195.05 243.32 192.35 243.83C189.25 243.83 186.16 243.83 183.06 243.83ZM213.62 153.07C204.95 161.75 196.27 170.46 187.2 179.53C178.56 170.82 169.88 162.11 161.42 153.61C158.65 156.38 155.84 159.19 152.82 162.18C161.42 170.75 170.14 179.39 179.17 188.32C170.28 197.21 161.6 205.85 153.22 214.27C156.02 217.08 158.9 219.89 161.89 222.91C170.35 214.42 178.99 205.78 187.85 196.92C196.52 205.67 205.16 214.38 213.7 222.98C216.68 219.96 219.53 217.12 222.55 214.06C213.98 205.52 205.27 196.88 196.34 187.99C205.16 179.17 213.84 170.53 222.44 161.93C219.56 159.08 216.79 156.24 213.62 153.07Z" />
					<path id="Layer" class="shp0" d="M119.74 132.23C119.74 119.95 119.74 107.78 119.74 95.47C148.54 95.47 177.23 95.47 206.06 95.47C206.06 104.4 206.06 113.33 206.06 122.29C202.03 121.57 198 120.85 193.86 120.1C193.86 116.14 193.86 112.03 193.86 107.78C173.27 107.78 152.75 107.78 132.12 107.78C132.12 111.78 132.12 115.81 132.12 120.02C148.54 120.02 164.99 120.02 181.44 120.02C169.74 121.43 159.05 125.28 149.29 131.87C148.86 132.16 148.25 132.37 147.71 132.37C138.6 132.41 129.53 132.41 120.46 132.41C120.28 132.41 120.1 132.3 119.74 132.23ZM107.14 107.89C107.14 111.96 107.14 115.88 107.14 119.88C94.86 119.88 82.66 119.88 70.31 119.88C70.31 115.96 70.31 112 70.31 107.89C82.51 107.89 94.75 107.89 107.14 107.89ZM107.14 169.78C107.14 173.84 107.14 177.77 107.14 181.8C94.86 181.8 82.66 181.8 70.31 181.8C70.31 177.84 70.31 173.88 70.31 169.78C82.51 169.78 94.75 169.78 107.14 169.78Z" />
				</g>
			</g>
		</g>
	</g>
</svg>