<?xml version="1.0" encoding="utf-8"?>
<!-- Generator: Adobe Illustrator 17.0.0, SVG Export Plug-In . SVG Version: 6.00 Build 0)  -->
<!DOCTYPE svg PUBLIC "-//W3C//DTD SVG 1.1//EN" "http://www.w3.org/Graphics/SVG/1.1/DTD/svg11.dtd">
<svg version="1.1" id="Layer_1" xmlns="http://www.w3.org/2000/svg" xmlns:xlink="http://www.w3.org/1999/xlink" x="0px" y="0px"
	 width="80px" height="80px" viewBox="0 0 80 80" enable-background="new 0 0 80 80" xml:space="preserve">
<g>
	<path d="M12.5,15.396c0.026-0.024,0.064-0.044,0.077-0.073c0.862-2.089,1.74-2.675,4.014-2.675c14.572,0,29.144,0.019,43.716-0.023
		c1.997-0.006,3.808,1.449,3.789,3.78c-0.055,6.855-0.019,13.71-0.019,20.565c0,0.16,0,0.319,0,0.6
		c-0.46-0.336-0.825-0.624-1.212-0.878c-0.582-0.382-1.164-0.768-1.777-1.095c-0.34-0.181-0.455-0.384-0.453-0.765
		c0.014-3.721,0.009-7.442,0.009-11.162c0-0.214,0-0.429,0-0.669c-14.911,0-29.753,0-44.644,0c0,12.568,0,25.128,0,37.757
		c0.218,0.01,0.447,0.03,0.677,0.03c5.975,0.002,11.951,0.006,17.926-0.009c0.441-0.001,0.668,0.136,0.892,0.521
		c0.567,0.974,1.206,1.906,1.86,2.923c-0.222,0-0.413,0-0.605,0c-7.845,0-15.69,0-23.535,0c-0.238,0-0.476,0.007-0.715,0.011
		C12.5,47.956,12.5,31.676,12.5,15.396z"/>
	<path d="M49.57,67.646c-1.458-0.555-2.019-1.615-2.009-3.164c0.041-5.937,0.016-11.875,0.017-17.812
		c0-1.977,1.038-3.013,3.019-3.014c4.581-0.001,9.163,0.031,13.744-0.019c1.46-0.016,2.525,0.451,3.159,1.789
		c0,6.82,0,13.64,0,20.46c-0.365,0.861-1.011,1.423-1.87,1.76C60.277,67.646,54.923,67.646,49.57,67.646z M64.907,46.349
		c-4.904,0-9.753,0-14.623,0c0,6.231,0,12.43,0,18.636c4.892,0,9.742,0,14.623,0C64.907,58.769,64.907,52.583,64.907,46.349z"/>
	<path d="M33.172,26.435c7.994,0,15.958,0,23.973,0c0,2.5,0,4.994,0,7.489c-1.136-0.208-2.248-0.411-3.399-0.622
		c0-1.13,0-2.261,0-3.428c-5.729,0-11.418,0-17.137,0c0,1.135,0,2.242,0,3.414c4.5,0,8.971,0,13.442,0
		c-0.001,0.016-0.003,0.032-0.004,0.049c-0.943,0.191-1.894,0.35-2.827,0.58c-2.048,0.506-3.929,1.396-5.69,2.554
		c-0.189,0.124-0.427,0.244-0.644,0.245c-2.474,0.018-4.948,0.013-7.423,0.011c-0.087,0-0.174-0.024-0.292-0.042
		C33.172,33.264,33.172,29.866,33.172,26.435z"/>
	<path d="M60.898,38.3c0,0.913,0,1.751,0,2.663c-5.313,0-10.613,0-15.973,0c0,6.257,0,12.441,0,18.672c-0.908,0-1.757,0-2.67,0
		c-0.009-0.189-0.026-0.382-0.026-0.575c-0.001-5.938-0.002-11.875,0-17.813c0.001-1.842,1.098-2.944,2.941-2.945
		c5.058-0.004,10.116-0.001,15.174-0.001C60.506,38.3,60.668,38.3,60.898,38.3z"/>
	<path d="M29.652,33.256c-3.434,0-6.817,0-10.234,0c0-1.14,0-2.247,0-3.387c3.422,0,6.806,0,10.234,0
		C29.652,30.992,29.652,32.098,29.652,33.256z"/>
	<path d="M29.668,47.072c0,1.129,0,2.222,0,3.361c-3.411,0-6.807,0-10.246,0c0-1.116,0-2.22,0-3.361
		C22.832,47.072,26.216,47.072,29.668,47.072z"/>
</g>
</svg>
