<?xml version="1.0" encoding="utf-8"?>
<!-- Generator: Adobe Illustrator 17.0.0, SVG Export Plug-In . SVG Version: 6.00 Build 0)  -->
<!DOCTYPE svg PUBLIC "-//W3C//DTD SVG 1.1//EN" "http://www.w3.org/Graphics/SVG/1.1/DTD/svg11.dtd">
<svg version="1.1" xmlns="http://www.w3.org/2000/svg" xmlns:xlink="http://www.w3.org/1999/xlink" x="0px" y="0px" width="600px"
	 height="405px" viewBox="0 0 600 405" enable-background="new 0 0 600 405" xml:space="preserve">
<g id="Layer_6">
</g>
<g id="Layer_1">
	<g>
		<path fill="#EEEEEC" d="M548.76,155.03v29.43c-1.62,0.32-1.1,1.62-1.18,2.6c-0.37,5.64-1.52,11.18-2.72,16.68
			c-1.45,6.62-3.56,13.1-6.06,19.45c-4.68,11.99-9.66,23.79-19.74,32.45c-7.33,6.33-15.92,10.3-25.46,11.75
			c-7.87,1.18-15.92,1.35-23.79,2.55c-12.51,1.91-25.02,3.9-37.23,7.46c-15.13,4.39-29.63,10.25-43.36,18.03
			c-8.41,4.76-16.58,9.93-24.23,15.87c-5.79,4.51-11.48,9.1-16.95,14c-7.46,6.67-14.72,13.61-21.26,21.12
			c-8.39,9.64-17.59,18.32-27.49,26.32c-6.87,5.54-14.72,9.59-22.49,13.66c-7.11,3.73-14.47,6.89-22.15,9.1
			c-6.99,2.01-14.03,4.19-21.44,4.41c-0.86,0.02-1.57,0.17-1.72,1.18h-27.67c-0.25-1.4-1.37-1.13-2.31-1.15
			c-1.18-0.05-2.38,0.1-3.53-0.15c-11.7-2.43-23.35-5.1-34.34-10.01c-10.82-4.81-21.8-9.27-32.37-14.62
			c-11.21-5.69-21.93-12.26-32.08-19.79c-11.92-8.83-22.96-18.49-32.84-29.55c-9.39-10.57-17.61-21.9-23.84-34.61
			c-4.56-9.3-8.27-18.93-9.39-29.38c-0.1-0.78-0.34-1.3-1.18-1.42V239.2c0.64-0.1,1.08-0.42,1.13-1.1c0.47-6.06,2.84-11.48,5.13-17
			c5.1-12.31,14.2-20.68,25.83-26.37c10.4-5.1,21.61-7.75,32.96-9.64c8.27-1.37,16.56-2.45,24.92-3.16
			c9.03-0.76,17.98-2.16,26.95-3.36c9.34-1.25,18.62-2.92,27.35-6.77c10.03-4.44,15.23-12.04,14.59-22.39
			c-0.32-5.44-2.06-10.67-4.12-15.7c-4.02-9.81-9.96-18.52-15.48-27.47c-5.84-9.47-7.14-19.92-5.22-30.31
			c2.67-14.54,11.67-25.53,23.18-34.51c8.09-6.35,16.92-11.43,26.24-15.77c6.55-3.04,13.27-5.54,20.09-7.82
			c12.21-4.12,24.77-6.79,37.45-8.98c11.55-1.96,23.1-3.63,34.83-3.92c0.98-0.02,2.28,0.42,2.6-1.18h45.91
			c0.15,1.03,0.86,1.23,1.72,1.18c4.14-0.22,8.14,0.74,12.21,1.13c10.47,1.03,20.75,3.31,30.95,5.64
			c8.19,1.89,16.24,4.59,24.26,7.24c14.1,4.68,27.71,10.5,40.89,17.29c13.2,6.79,25.95,14.37,37.75,23.45
			c6.77,5.22,13.98,9.86,18.76,17.27c3.8,5.91,7.04,12.07,10.18,18.32c3.7,7.38,5.86,15.21,8.04,23.03
			c1.77,6.33,3.43,12.7,4.44,19.25c0.78,4.95,2.18,9.81,2.13,14.91C547.59,153.44,547.17,154.74,548.76,155.03z"/>
		<path fill="#EEEEEC" d="M116.71,151.77c0,8.07-7.09,15.4-15.16,14.96c-8.49-0.47-14.45-6.25-14.59-14.62
			c-0.15-7.63,5.52-15.48,14.99-14.74C109.62,136.27,116.71,144.29,116.71,151.77z"/>
	</g>
</g>
<g id="Layer_2">
</g>
<g id="Layer_3">
</g>
<g id="Layer_4">
	<text transform="matrix(1 0 0 1 520.7823 93.7613)" display="none" fill="#FFFFFF" font-family="'MyriadPro-Bold'" font-size="72">₹</text>
</g>
<g id="Layer_5">
	<g>
		<path fill="#130F09" d="M196.72,241.82c-2.8-2.29-5.59-4.59-8.39-6.89c-6.93-3.81-14.21-6.35-22.22-6.36
			c-17.62,1.05-30.25,9.6-37.84,25.47c-4.1,8.56-4.11,17.58-2.41,26.71c3.01,7.98,6.93,15.39,13.68,20.9
			c14.66,11.98,30.49,13.11,47.27,4.9c9.2-6.08,15.94-14.13,19.58-24.64C210.42,266.8,206.56,253.59,196.72,241.82z M166.18,308.52
			c-20.56-0.13-38.22-17.96-38.09-38.45c0.13-20.56,17.96-38.22,38.45-38.09c20.56,0.13,38.22,17.96,38.09,38.45
			C204.5,290.99,186.67,308.65,166.18,308.52z"/>
		<path fill="#FBEF06" d="M417.05,172.26c0.07,3.39-1.49,3.58-4.16,3.64c-2.98,0.06-4.4-0.81-3.76-3.92c-0.62-3.13,0.82-3.92,3.78-4
			C416.25,167.89,416.98,169.12,417.05,172.26z"/>
		<path fill="#FBEF06" d="M401.72,171.94c0.61,2.97-0.53,4.11-3.66,3.96c-2.57-0.13-4.34-0.1-4.25-3.59
			c0.07-3.09,0.71-4.44,4.1-4.33C400.8,168.08,402.39,168.71,401.72,171.94z"/>
		<path fill="#FBEF06" d="M386.7,170.98c-0.05,2.75,0.33,5.51-3.83,4.98c-1.49-0.56-4.02,0.83-4.2-2.23
			c0.67-2.23-1.42-6.2,3.64-5.67C384.33,168.27,386.78,167.42,386.7,170.98z"/>
		<path fill="#E11E3C" d="M308.44,222.67c8.79-2.37,17.54-4.89,26.31-7.35c0.04-6.15,0.15-12.28-0.67-18.43
			c-5.98-44.9-46.65-77.82-91.54-73.94c-45.5,3.93-79.96,42.32-78.58,87.55c9.65,0.01,19.31,0.12,28.95-0.03
			c2.99-0.04,4.08,0.77,4.01,3.9c-0.23,9.15-0.16,18.3-0.2,27.45c9.84,11.77,13.7,24.98,9.67,40.09
			c18.29,11.02,38.03,14.11,58.87,10.33c19.85-3.61,36.05-13.74,49.46-28.58c0.12-3.96,0.24-7.92,0.36-11.88
			c-0.41-1.35-0.41-2.71,0-4.06c0-1.31,0-2.63,0.01-3.94c-0.13-1.32-0.25-2.64-0.38-3.96c-2.97,0.23-4.46-0.86-3.63-4.04l-0.36-3.96
			c-3.91,0.3-6.67-0.26-5.96-5.45C305.12,223.74,306.36,223.23,308.44,222.67z M215.14,181.26c3.78-1.64,8.81-0.43,9.8,3.17
			c0.14,0.49,0.29,0.94,0.48,1.37c0.07,0.17,0.14,0.34,0.22,0.5c0.15,0.33,0.32,0.64,0.51,0.93c0.09,0.15,0.18,0.29,0.28,0.43
			c0.19,0.28,0.4,0.54,0.61,0.79c0.11,0.13,0.22,0.25,0.33,0.37c0.13,0.15,0.27,0.29,0.42,0.43c0.49,0.48,1.02,0.9,1.59,1.29
			c0.29,0.2,0.58,0.39,0.88,0.57c0.12,0.08,0.24,0.15,0.36,0.22c0.31,0.18,0.63,0.36,0.95,0.53c0.2,0.11,0.4,0.21,0.6,0.32
			c0.37,0.2,0.74,0.39,1.12,0.58c0,0.01,0.01,0.01,0.01,0.01c0.48-0.33,0.97-0.61,1.47-0.86c0-0.01,0-0.01,0.01,0
			c0.37-0.18,0.75-0.34,1.13-0.47c0.16-0.07,0.32-0.12,0.48-0.17c0.02,0,0.05-0.01,0.08-0.02c0.19-0.05,0.39-0.11,0.59-0.15
			c0.23-0.06,0.45-0.1,0.68-0.13c0.14-0.03,0.29-0.05,0.44-0.06c0.11-0.02,0.22-0.03,0.34-0.04c0.1,0,0.2-0.01,0.3-0.02h0.1
			c0.24-0.01,0.49-0.02,0.74-0.01c0.2,0,0.4,0.01,0.61,0.03c0.24,0.01,0.49,0.03,0.73,0.07c0.26,0.03,0.52,0.07,0.79,0.13
			c0.27,0.05,0.53,0.11,0.8,0.18c3.32-3.3,6.65-6.6,9.97-9.91c-1.05-3.35-0.91-6.47,1.88-9.02c3.12-2.85,6.52-2.46,10.03-0.85
			c2.38-2.58,5.1-4.72,8.35-6.12c0.15-2.28-0.56-4.66,0.85-6.78c2.32-3.49,5.67-4.85,9.47-3.34c3.74,1.5,5.54,4.73,4.67,8.87
			c-0.83,3.96-3.53,5.88-7.52,5.79c-0.16,0-0.33-0.01-0.49-0.03c-0.16-0.01-0.32-0.03-0.48-0.05c-0.17-0.02-0.33-0.04-0.49-0.07
			c-0.08-0.01-0.16-0.02-0.24-0.04c-0.16-0.02-0.32-0.05-0.49-0.09c-0.57-0.11-1.13-0.24-1.69-0.35c-0.16-0.04-0.33-0.07-0.5-0.1
			c-0.51,0.42-1.02,0.83-1.53,1.24c-0.52,0.41-1.04,0.81-1.57,1.2c-1.05,0.78-2.13,1.52-3.26,2.2c-0.37,0.23-0.75,0.45-1.14,0.66
			c-0.38,0.21-0.77,0.41-1.17,0.61c0.31,8.77-2.53,11.2-11.8,10.08c-0.44,0.73-0.94,1.4-1.48,2.05c-0.25,0.29-0.5,0.58-0.76,0.85
			c-1,1.1-2.11,2.12-3.2,3.17c-0.26,0.24-0.51,0.48-0.76,0.72c-0.25,0.25-0.5,0.49-0.74,0.74c-0.25,0.25-0.49,0.5-0.72,0.76
			c-0.24,0.25-0.47,0.51-0.69,0.78c-0.23,0.27-0.45,0.54-0.66,0.82c0.33,2.14,0.86,4.31-0.09,6.4c-1.63,3.54-4.39,5.63-8.34,4.93
			c-4.85-0.86-6.69-4.46-6.99-9.05c-3.77-1.59-7.25-3.08-11.77-1.66c-3.8,1.19-7.28-1.04-8.22-5.29
			C210.16,186.51,211.05,183.03,215.14,181.26z M293.66,240.57c-0.21,2.2-2.22,2.14-3.88,2.15c-26.87,0.01-53.75,0.01-80.62-0.01
			c-1.82,0-4.27,0.04-4.08-2.43c0.26-3.34,3.46-2.22,5.54-2.71c0.05-8.63,0.25-17.27,0.08-25.89c-0.08-3.98,1.47-5.24,5.28-5.16
			c11.69,0.23,9.84-1.12,9.99,9.63c0.09,7.13,0.1,14.27,0.15,21.41c1.69-0.04,3.39-0.08,5.08-0.11c-0.02-5.46,0.02-10.93-0.1-16.38
			c-0.07-3.17,1.27-4.48,4.44-4.45c12.95,0.13,11.24-1.15,11.32,10.42c0.02,3.48-0.01,6.95-0.01,10.43
			c1.69-0.01,3.38-0.01,5.07-0.02c-0.01-11.81,0.15-23.63-0.13-35.44c-0.1-4.51,1.2-6.25,5.91-6.12c10.86,0.29,9.72-0.78,9.74,9.63
			c0.01,10.65-0.01,21.29-0.02,31.94c1.77,0.01,3.54,0.02,5.31,0.04c0-16.96,0.14-33.93-0.08-50.88c-0.06-4.56,1.29-6.16,5.95-6.03
			c10.52,0.29,9.34-0.58,9.35,9.5c0.01,5.26,0.01,10.53,0.01,15.79c0,10.53-0.01,21.07-0.01,31.6c0.66,0.08,1.31,0.17,1.97,0.23
			C291.78,237.89,293.9,238.01,293.66,240.57z"/>
		<path fill="#FBEF06" d="M417.66,222.16c-4.56-0.7-9.03-2.17-13.46-3.53c-10.11-3.09-20.63-4.77-30.44-8.86
			c-1.36-0.15-2.9,0.42-3.92-1.03c-1.51,0.32-2.87,0.01-4.08-0.95c-1.31-0.02-2.61-0.03-3.92-0.05c-1.19,1-2.62,1.2-4.1,1.24
			c-1.26,1.28-2.88,0.59-4.34,0.77c-5.83,3.17-12.4,3.82-18.65,5.57c-8.77,2.46-17.52,4.98-26.31,7.35
			c-2.08,0.56-3.32,1.07-3.68,3.7c-0.71,5.19,2.05,5.75,5.96,5.45c35.38-0.02,70.76-0.04,106.14-0.05c1.92-0.9,5.31,1.88,5.86-2.43
			C423.23,225.35,422.29,222.86,417.66,222.16z M351.82,221.65c-1.18-0.03-1.82-0.62-1.85-1.82c-0.02-1.48,0.81-2.07,2.19-1.95
			c1.21,0.11,1.63,0.94,1.59,2.06C353.7,221.17,352.97,221.65,351.82,221.65z M367.73,220.19c-0.23,2.21-1.8,3.39-4.14,3.54
			c-2.31-0.53-3.9-1.87-3.6-4.41c0.25-2.2,1.77-3.64,4.06-3.46C366.52,216.06,368,217.68,367.73,220.19z M375.84,221.63
			c-1.52-0.01-2-0.94-1.86-2.26c0.13-1.23,1.02-1.59,2.12-1.5c1.21,0.1,1.67,0.86,1.64,2C377.68,221.08,377,221.63,375.84,221.63z"
			/>
		<path fill="#E62643" d="M301.22,82.48c-1.51-2.56-1.31-4.13,0.1-6.59c3.43-6,1.18-12.75-5.03-15.4c-2.45-1.04-3.43-2.26-3.84-4.96
			c-1.2-7.98-5.81-11.16-13.66-9.8c-2.12,0.37-3.59,0.19-5.26-1.53c-6.02-6.19-11.18-6.09-17.51,0.14c-1.3,1.29-2.41,1.8-4.32,1.54
			c-9.39-1.31-13,1.24-14.54,10.35c-0.36,2.1-1.11,3.08-3.02,3.94c-7.17,3.22-9.33,9.58-5.36,16.32c1.34,2.28,1.32,3.76-0.19,5.73
			c-0.77,1.01-1.66,2.58-1.41,3.63c1.86,7.83-3.69,7.95-8.71,8.73c-0.82,0.13-1.61,0.46-2.42,0.6c-2.47,0.41-3.56,1.49-2.44,4.12
			c0.92,2.15,0.65,5.04,4.71,3.89c4.61-1.32,9.45-1.86,14.18-2.78c2.91-0.57,4.63,0.03,4.96,3.5c0.32,3.4,1.74,7.2,5.28,7.78
			c7.27,1.18,14.4,2.31,20.46,6.92c0.34,0.26,0.97,0.12,1.47,0.17c3.56-0.01,6.5-1.44,8.68-4.19c1.39-1.77,2.81-2.29,5.12-1.9
			c8.37,1.43,12.76-1.62,14.03-9.87c0.38-2.47,1.17-3.69,3.48-4.68C302.52,95.34,304.84,88.64,301.22,82.48z M298.61,87.99
			c1.23,2.88-1.51,5.74-4.69,6.64c-3.68,1.05-5.35,2.83-5.46,6.96c-0.15,6.2-3.72,8.76-9.74,6.99c-3.75-1.11-5.72-0.06-7.97,2.74
			c-3.92,4.86-7.94,4.77-11.97-0.21c-2.14-2.65-4.01-3.61-7.57-2.57c-6.27,1.83-9.71-0.71-9.99-7.24c-0.16-3.58-1.43-5.27-4.73-6.48
			c-5.89-2.16-7.29-6.18-3.85-11.27c2.07-3.05,2.27-5.3,0.13-8.43c-3.62-5.3-2.21-9.23,3.99-11.57c3.07-1.15,4.29-2.75,4.44-6.14
			c0.31-6.84,3.67-9.24,10.3-7.42c3.04,0.84,4.82,0.39,6.82-2.06c4.69-5.76,8.4-5.83,12.93-0.15c2.14,2.7,4.1,3,7.25,2.15
			c6.33-1.7,9.72,0.72,10,7.28c0.16,3.57,1.33,5.53,4.75,6.42c3.41,0.88,5.38,3.14,5.68,7.89
			C293.68,76.23,295.98,81.85,298.61,87.99z"/>
		<path fill="#FBEF06" d="M304.81,300.98c0-2.63,0.33-4.96,3.93-4.29c36.71,0.01,73.43,0.03,110.14,0.04c4-0.73,3.93,1.7,4.06,4.65
			c0.17,3.73-2.02,3.37-4.41,3.37c-17.22-0.03-34.44-0.01-51.66-0.01c0.51-3.87-1.82-4.02-4.79-4.06c-3.05-0.04-4.76,0.67-4.21,4.06
			c-16.55,0.05-33.1,0.11-49.64,0.16C305.27,305.17,304.79,303.29,304.81,300.98z"/>
		<path fill="#E9D907" d="M418.87,296.73c-36.71-0.02-73.42-0.03-110.14-0.04c0.18-3.81-0.89-8.63,5.82-7.08
			c4.27-0.04,8.55-0.08,12.82-0.13c5.12,0.07,10.24,0.13,15.35,0.2c4.15-0.02,8.29-0.04,12.44-0.06c5.43-0.01,10.86-0.01,16.29-0.02
			c4.3-0.01,8.6-0.01,12.89-0.02c5.11,0.03,10.22,0.05,15.32,0.07c4.47,0,8.94,0,13.4,0.01
			C419.9,287.98,418.51,293.08,418.87,296.73z"/>
		<path fill="#FEE277" d="M163.96,210.5c9.65,0.01,19.31,0.12,28.95-0.03c2.98-0.05,4.08,0.77,4,3.9c-0.23,9.15-0.15,18.3-0.2,27.45
			c-2.8-2.3-5.59-4.59-8.39-6.89c0.04-3.96-0.07-7.93,0.18-11.88c0.21-3.38-1.26-4.23-4.38-4.14c-6.43,0.19-12.88,0.07-19.32,0.07
			c-7.73-0.18-15.45-0.36-23.18-0.54c0-2.47,0-4.93,0-7.4C149.08,210.87,156.52,210.69,163.96,210.5z"/>
		<path fill="#FECD04" d="M141.63,211.06c0,2.47,0,4.93,0,7.4c-0.56,0.81-1.15,1.61-1.67,2.44c-3.75,5.9-9.26,8.19-15.13,6.27
			c-5.91-1.93-9.54-7.55-8.93-13.83c0.6-6.08,5.04-10.49,11.69-11.58c0.49-0.08,0.98-0.11,1.48-0.16c1.23,0.16,2.46,0.32,3.69,0.47
			C136.95,203.84,139.32,207.42,141.63,211.06z"/>
		<path fill="#E62643" d="M244.44,325.8c-7.66,0.32-17.02-1.1-26.32-3.15c-2.17-0.48-4.47-0.73-3.21-4.07
			c0.92-2.45,0.87-5.14,5.09-4.03c13.19,3.49,26.67,3.97,40.15,2.21c3.93-0.51,3.88,1.48,4.41,4.07c0.6,2.94-0.52,3.74-3.25,4.12
			C256.33,325.63,251.35,325.72,244.44,325.8z"/>
		<path fill="#E9D907" d="M310.72,231.82c35.38-0.02,70.76-0.03,106.14-0.05c-0.13,1.33-0.27,2.65-0.4,3.97
			c-35.13,0.01-70.25,0.02-105.38,0.03C310.96,234.46,310.84,233.14,310.72,231.82z"/>
		<path fill="#FBEF06" d="M412.86,239.77h-13.01c-5.23,0.03-10.46,0.07-15.69,0.1c-4.18-0.01-8.36-0.01-12.54-0.02
			c-5.24-0.02-10.48-0.04-15.71-0.06c-4.32-0.02-8.64-0.03-12.96-0.05c-5.24,0.06-10.48,0.12-15.72,0.18
			c-4.17-0.03-8.34-0.07-12.52-0.1c-2.97,0.23-4.46-0.86-3.63-4.04c35.13-0.01,70.26-0.03,105.38-0.04
			C417.41,239.01,415.83,240.01,412.86,239.77z"/>
		<path fill="#FBEF06" d="M412.4,281.74c-4.04,0-8.08,0.01-12.12,0.01c0.01-10,0.03-20.01,0.04-30.01c4.02,0,8.03,0.01,12.04,0.01
			C412.38,261.75,412.39,271.74,412.4,281.74z"/>
		<path fill="#FBEF06" d="M326.94,281.75h-11.89c-0.11-6.03-0.22-12.06-0.33-18.09c0.12-3.96,0.24-7.92,0.36-11.88
			c3.95-0.01,7.9-0.02,11.85-0.04C326.93,261.74,326.93,271.74,326.94,281.75z"/>
		<path fill="#E11E3C" d="M164.81,218.99c6.44-0.01,12.88,0.12,19.32-0.07c3.12-0.09,4.59,0.76,4.38,4.14
			c-0.25,3.95-0.14,7.92-0.18,11.88c-6.93-3.81-14.21-6.35-22.22-6.36C165.68,225.38,165.25,222.19,164.81,218.99z"/>
		<path fill="#E62643" d="M176.09,124.26c-2.15-0.88-3.13-2.92-4.42-4.57c-1.22-1.56,0.42-2.34,1.4-3.12
			c6.94-5.49,14.47-9.99,22.4-13.89c2.19-1.07,3.12-0.21,3.66,1.65c0.52,1.82,3.34,3.96,0.22,5.52
			c-7.76,3.88-15.14,8.29-21.93,13.69C177.06,123.84,176.58,124,176.09,124.26z"/>
		<path fill="#E62643" d="M165.01,134.85c-0.75,0.95-1.21,1.6-1.74,2.21c-5.14,5.9-9.82,12.15-13.36,19.13
			c-1.94,3.83-4.04,1.95-6.45,0.93c-3.29-1.38-1.78-3.21-0.71-5.1c4.02-7.1,8.59-13.81,14.05-19.88c0.87-0.97,1.51-3.12,3.43-1.72
			C161.93,131.68,163.36,133.3,165.01,134.85z"/>
		<path fill="#E62643" d="M132.75,202.07c-1.23-0.16-2.46-0.32-3.69-0.47c-0.69-9.8,1.86-19.08,4.48-28.37
			c0.9-3.18,2.78-2.64,4.98-1.71c1.87,0.79,4.39,0.68,3.04,4.2c-2.76,7.17-4,14.72-4.6,22.36
			C136.72,200.86,135.87,202.54,132.75,202.07z"/>
		<path fill="#E62643" d="M304.81,300.98c-0.02,2.31,0.47,4.18,3.41,3.92c0.95,1.42,1.21,2.61-0.59,3.7
			c-7.82,4.76-16.07,8.56-24.77,11.43c-3.28,1.08-3.03-1.58-3.66-3.23c-0.69-1.8-1.87-3.79,1.29-4.69
			C289.15,309.66,296.94,305.21,304.81,300.98z"/>
		<path fill="#FBEF06" d="M382.86,205.66c-3.38,0.74-4.14-0.71-4.13-3.67c0.01-2.88,0.71-4.04,3.83-4.05
			c3.23-0.01,4.29,0.98,4.2,4.22C386.7,205.27,385.64,206.44,382.86,205.66z"/>
		<path fill="#FBEF06" d="M382.59,190.72c-3.03,0.65-3.89-0.69-3.85-3.7c0.04-2.86,0.67-4.07,3.82-4.07c3.2,0,4.26,0.94,4.24,4.21
			C386.76,190.36,385.49,191.24,382.59,190.72z"/>
		<path fill="#E9D907" d="M412.49,285.73h-12.31c0.03-1.32,0.07-2.65,0.1-3.98c4.04,0,8.08-0.01,12.12-0.01
			C412.89,283.06,412.82,284.39,412.49,285.73z"/>
		<path fill="#E9D907" d="M412.36,251.75c-4.01,0-8.02-0.01-12.04-0.01c-0.49-1.32-0.5-2.65-0.03-3.98
			c3.86-0.01,7.73-0.02,11.6-0.03C413.3,248.93,412.74,250.35,412.36,251.75z"/>
		<path fill="#FBEF06" d="M413.06,289.66c-4.46-0.01-8.93-0.01-13.4-0.01c0.18-1.31,0.35-2.61,0.52-3.92h12.31L413.06,289.66z"/>
		<path fill="#E9D907" d="M411.89,243.76c-3.86-0.01-7.71-0.01-11.57-0.02c-0.15-1.32-0.31-2.64-0.47-3.97h13.01
			C412.45,241.08,413.36,242.71,411.89,243.76z"/>
		<path fill="#FBEF06" d="M411.89,243.76v3.97c-3.87,0.01-7.74,0.02-11.6,0.03c0.01-1.34,0.02-2.68,0.03-4.02
			C404.18,243.75,408.03,243.75,411.89,243.76z"/>
		<path fill="#E9D907" d="M326.99,285.73h-12.02c0.03-1.33,0.06-2.66,0.08-3.98h11.89C326.95,283.07,326.97,284.4,326.99,285.73z"/>
		<path fill="#FBEF06" d="M327.37,289.48c-4.27,0.05-8.55,0.09-12.82,0.13c0.14-1.29,0.28-2.58,0.42-3.88h12.02
			C327.12,286.98,327.24,288.23,327.37,289.48z"/>
		<path fill="#E9D907" d="M357.75,208.99c-1.27,1.28-2.88,0.59-4.35,0.77c0.04-0.32,0.02-0.66,0.12-0.96
			c0.57-1.72-1.57-4.87,1.92-4.96C359.33,203.73,357.11,207.18,357.75,208.99z"/>
		<path fill="#E9D907" d="M373.76,209.77c-1.35-0.15-2.9,0.42-3.92-1.03c-0.01-0.98-0.02-1.97-0.04-2.95
			c-0.04-1.43,0.63-2.06,2.07-2.06c1.47,0,2.07,0.72,2.03,2.11C373.86,207.16,373.81,208.47,373.76,209.77z"/>
		<path fill="#E9D907" d="M365.76,207.79c-1.3-0.01-2.61-0.03-3.91-0.04c0.76-1.94-2.04-5.75,1.96-5.73
			C367.74,202.03,365.05,205.82,365.76,207.79z"/>
		<path fill="#F3CE93" d="M166.54,231.98c-20.49-0.13-38.32,17.53-38.45,38.09c-0.13,20.49,17.53,38.32,38.09,38.45
			c20.49,0.13,38.32-17.53,38.45-38.09C204.76,249.94,187.1,232.11,166.54,231.98z M170.5,302.5c-15.08,2.24-30.71-7.82-35.15-22.62
			c-0.52-1.76-1.24-3.53,0.57-5.02c-0.45-3.07-0.45-6.15,0-9.22c-1.81-1.49-1.09-3.26-0.56-5.02c4.46-14.84,20.02-24.86,35.13-22.62
			c16.43,2.43,28.35,15.99,28.35,32.25S186.93,300.06,170.5,302.5z"/>
		<path fill="#F9B850" d="M272.73,237.5c0-16.96,0.14-33.92-0.08-50.88c-0.06-4.56,1.29-6.16,5.95-6.03
			c10.51,0.29,9.33-0.58,9.35,9.5c0.02,15.8,0,31.59,0,47.39C282.87,237.49,277.8,237.49,272.73,237.5z"/>
		<path fill="#FEFBFB" d="M251.92,237.45c-0.01-11.81,0.15-23.63-0.13-35.43c-0.11-4.52,1.2-6.25,5.91-6.13
			c10.86,0.3,9.72-0.78,9.73,9.63c0.02,10.65-0.01,21.29-0.01,31.94C262.26,237.46,257.09,237.46,251.92,237.45z"/>
		<path fill="#706D71" d="M210.62,237.57c0.05-8.63,0.25-17.26,0.08-25.89c-0.08-3.97,1.47-5.24,5.28-5.16
			c11.69,0.24,9.84-1.12,9.98,9.63c0.1,7.14,0.11,14.27,0.15,21.41C220.95,237.56,215.79,237.57,210.62,237.57z"/>
		<path fill="#424951" d="M210.62,237.57c5.17,0,10.33-0.01,15.5-0.01c1.69-0.04,3.39-0.07,5.08-0.11
			c5.21,0.48,10.43,0.44,15.65,0.02c1.69-0.01,3.38-0.01,5.08-0.02c5.17,0,10.33,0.01,15.5,0.01c1.77,0.01,3.54,0.03,5.3,0.04
			c5.07-0.01,10.14-0.01,15.22-0.02c0.66,0.08,1.31,0.17,1.97,0.23c1.86,0.18,3.98,0.3,3.74,2.86c-0.21,2.2-2.22,2.14-3.88,2.14
			c-26.87,0.01-53.75,0.02-80.62,0c-1.82,0-4.27,0.04-4.08-2.43C205.34,236.94,208.54,238.06,210.62,237.57z"/>
		<path fill="#E9D907" d="M246.85,237.47c-5.22,0.42-10.43,0.46-15.65-0.02c-0.02-5.46,0.02-10.92-0.1-16.38
			c-0.07-3.16,1.27-4.48,4.44-4.45c12.95,0.13,11.23-1.15,11.31,10.43C246.88,230.52,246.85,234,246.85,237.47z"/>
		<path fill="#706D71" d="M231.01,197.33c-3.76-1.59-7.25-3.08-11.77-1.66c-3.79,1.19-7.28-1.04-8.22-5.29
			c-0.86-3.86,0.04-7.34,4.12-9.11c3.79-1.64,8.81-0.43,9.8,3.17c1.29,4.68,4.67,6.48,8.35,8.34
			C232.53,194.29,231.77,195.81,231.01,197.33z"/>
		<path fill="#FEFBFB" d="M267.24,175.08c0.31,8.77-2.53,11.19-11.8,10.08c-0.96-1.27-1.92-2.54-2.87-3.81
			c-1.05-3.36-0.91-6.47,1.88-9.02c3.12-2.85,6.52-2.46,10.03-0.85C265.39,172.68,266.32,173.88,267.24,175.08z"/>
		<path fill="#E9D907" d="M231.01,197.33c0.76-1.52,1.53-3.04,2.29-4.56c2.87-1.94,5.97-2.37,9.3-1.51
			c1.28,1.26,2.56,2.53,3.84,3.79c0.33,2.14,0.86,4.31-0.1,6.39c-1.62,3.55-4.39,5.64-8.34,4.94
			C233.15,205.51,231.31,201.92,231.01,197.33z"/>
		<path fill="#F9B850" d="M272.82,165.36c0.16-2.28-0.56-4.67,0.85-6.79c2.32-3.49,5.67-4.85,9.47-3.33
			c3.75,1.5,5.54,4.73,4.68,8.87c-0.83,3.96-3.53,5.87-7.52,5.79c-1.47-0.03-2.92-0.47-4.38-0.73
			C274.88,167.9,273.85,166.63,272.82,165.36z"/>
		<path fill="#706D71" d="M246.44,195.05c-1.28-1.26-2.56-2.53-3.84-3.79c3.32-3.3,6.64-6.61,9.97-9.91
			c0.96,1.27,1.92,2.54,2.87,3.81C253.07,189.02,249.14,191.48,246.44,195.05z"/>
		<path fill="#706D71" d="M272.82,165.36c1.03,1.27,2.06,2.55,3.09,3.82c-2.71,2.23-5.5,4.34-8.67,5.9c-0.92-1.2-1.85-2.4-2.77-3.6
			C266.86,168.89,269.57,166.76,272.82,165.36z"/>
		<path fill="#E9D907" d="M326.93,247.75v3.99c-3.95,0.02-7.9,0.03-11.85,0.04c-0.41-1.35-0.41-2.71,0-4.06L326.93,247.75z"/>
		<path fill="#E9D907" d="M327.23,239.92c-0.1,1.27-0.21,2.55-0.31,3.82c-3.94,0.01-7.89,0.03-11.83,0.04
			c-0.13-1.32-0.25-2.64-0.38-3.96C318.89,239.85,323.06,239.89,327.23,239.92z"/>
		<path fill="#FBEF06" d="M326.93,247.75l-11.85-0.03c0-1.31,0-2.63,0.01-3.94c3.94-0.01,7.89-0.03,11.83-0.04
			C326.92,245.08,326.93,246.42,326.93,247.75z"/>
		<path fill="#E9D907" d="M363.59,223.74c-2.3-0.53-3.9-1.87-3.6-4.42c0.26-2.2,1.77-3.64,4.06-3.45c2.47,0.2,3.95,1.81,3.68,4.32
			C367.5,222.41,365.94,223.58,363.59,223.74z"/>
		<path fill="#E9D907" d="M377.74,219.88c-0.06,1.21-0.74,1.76-1.9,1.76c-1.52-0.01-2-0.94-1.86-2.26c0.13-1.22,1.02-1.59,2.12-1.5
			C377.31,217.97,377.78,218.73,377.74,219.88z"/>
		<path fill="#E9D907" d="M351.82,221.65c-1.18-0.03-1.82-0.62-1.84-1.81c-0.03-1.48,0.81-2.08,2.18-1.95
			c1.21,0.11,1.63,0.94,1.59,2.05C353.7,221.17,352.97,221.66,351.82,221.65z"/>
		<path fill="#FEFBFB" d="M298.93,71.52c-0.3-4.75-2.27-7.01-5.68-7.89c-3.42-0.89-4.59-2.85-4.75-6.42
			c-0.28-6.56-3.67-8.98-10-7.28c-3.15,0.85-5.11,0.55-7.25-2.15c-4.53-5.68-8.24-5.61-12.93,0.15c-2,2.45-3.78,2.9-6.82,2.06
			c-6.63-1.82-9.99,0.58-10.3,7.42c-0.15,3.39-1.37,4.99-4.44,6.14c-6.2,2.34-7.61,6.27-3.99,11.57c2.14,3.13,1.94,5.38-0.13,8.43
			c-3.44,5.09-2.04,9.11,3.85,11.27c3.3,1.21,4.57,2.9,4.73,6.48c0.28,6.53,3.72,9.07,9.99,7.24c3.56-1.04,5.43-0.08,7.57,2.57
			c4.03,4.98,8.05,5.07,11.97,0.21c2.25-2.8,4.22-3.85,7.97-2.74c6.02,1.77,9.59-0.79,9.74-6.99c0.11-4.13,1.78-5.91,5.46-6.96
			c3.18-0.9,5.92-3.76,4.69-6.64C295.98,81.85,293.68,76.23,298.93,71.52z M255.71,66.75c2.78,0.57,4.49,2.08,4.22,5.07
			c-0.24,2.73-1.95,4.12-4.64,4.03c-2.74-0.1-4.3-1.82-4.31-4.43C250.98,68.53,252.85,67.05,255.71,66.75z M256.17,90.95
			c-1.29,1.29-2.69,3.01-4.54,1.07c-1.71-1.79,0.14-3.01,1.24-4.12c6.41-6.5,12.86-12.96,19.32-19.4c0.91-0.91,1.81-2.09,3.39-1.4
			c0.81,0.35,1.27,1.02,1.29,1.94c0.06,1.34-0.91,2.08-1.72,2.89C268.83,78.28,262.5,84.62,256.17,90.95z M272.77,92.83
			c-2.97,0.17-4.76-1.49-4.82-4.37c-0.05-2.89,1.77-4.65,4.66-4.6c2.64,0.05,4.12,1.75,4.37,4.42
			C276.8,90.94,275.51,92.67,272.77,92.83z"/>
		<path fill="#FBEF06" d="M355.16,289.62c-4.15,0.02-8.29,0.04-12.44,0.06c0.21-1.36,0.42-2.73,0.63-4.09
			c3.8,0.05,7.6,0.09,11.39,0.14C354.88,287.03,355.02,288.32,355.16,289.62z"/>
		<path fill="#FBEF06" d="M384.34,289.58c-4.29,0.01-8.59,0.01-12.89,0.02c0.14-1.29,0.28-2.58,0.42-3.87h12.03
			C384.04,287.01,384.19,288.3,384.34,289.58z"/>
		<path fill="#E9D907" d="M354.91,243.77c-3.77,0.02-7.54,0.04-11.31,0.06c-0.22-1.36-0.43-2.72-0.65-4.09
			c4.32,0.02,8.64,0.03,12.96,0.05C355.5,241.1,356.49,242.75,354.91,243.77z"/>
		<path fill="#E9D907" d="M384.16,239.87c-0.11,1.29-0.23,2.58-0.34,3.87h-11.84c-0.12-1.3-0.24-2.59-0.36-3.89
			C375.8,239.86,379.98,239.86,384.16,239.87z"/>
		<path fill="#F9B850" d="M171.63,241.71c-14.82-2.41-27.96,5.44-32.91,19.6c-0.57,1.63-0.54,3.75-2.8,4.33
			c-0.45,3.07-0.45,6.15,0,9.22c2.26,0.58,2.23,2.7,2.8,4.33c4.95,14.16,18.1,22.01,32.91,19.6c13.46-2.18,23.81-14.6,23.81-28.54
			C195.44,256.3,185.09,243.89,171.63,241.71z M178.93,265.44c-3.93-0.77-4.89,1.99-6.39,4.63c-1.73,3.03-4.65,4.59-8.21,4.98
			c-1.77,0.2-3.66-0.39-6.12,1.08c4.75,4.66,9.38,9.12,13.89,13.68c1.06,1.06,3.39,2.23,1.81,3.96c-2,2.2-3.13-0.59-4.22-1.65
			c-5.27-5.07-10.42-10.28-15.56-15.49c-1-1.01-2.74-1.88-2.11-3.63c0.65-1.82,2.52-1.18,3.94-1.23c2.16-0.08,4.33-0.04,6.49-0.02
			c3.9,0.05,6.65-1.59,8.44-6.18c-5.52,0-10.47,0.03-15.42-0.02c-1.42-0.01-3.46,0.32-3.45-1.79c0.01-2.13,2.06-1.73,3.47-1.75
			c4.95-0.05,9.9-0.02,15.33-0.02c-1.43-4.29-4.04-6.09-7.89-6.21c-2.83-0.09-5.66-0.02-8.49-0.05c-1.2-0.01-2.49-0.12-2.48-1.72
			c0.01-1.68,1.45-1.6,2.57-1.61c7.98-0.03,15.97-0.02,23.96,0.01c0.99,0,2.13,0.11,2.27,1.4c0.17,1.62-1.03,1.89-2.27,1.92
			c-1.99,0.03-3.98,0.01-6.42,0.01c1.38,3.28,1.64,7.02,6.52,6.33c0.97-0.14,2.05,0.3,2.19,1.53
			C180.92,264.89,179.83,265.62,178.93,265.44z"/>
		<path fill="#130F09" d="M135.92,274.86c2.26,0.58,2.23,2.7,2.8,4.33c4.95,14.15,18.1,22.01,32.91,19.6
			c13.46-2.19,23.82-14.6,23.82-28.54c0-13.95-10.36-26.36-23.82-28.54c-14.81-2.41-27.96,5.45-32.91,19.6
			c-0.57,1.63-0.54,3.76-2.8,4.33c-1.8-1.49-1.09-3.26-0.56-5.02c4.46-14.84,20.02-24.86,35.13-22.62
			c16.43,2.43,28.35,15.99,28.35,32.25c0,16.26-11.91,29.81-28.34,32.25c-15.08,2.24-30.71-7.82-35.14-22.62
			C134.83,278.12,134.11,276.36,135.92,274.86z"/>
		<path fill="#E11E3C" d="M276.87,69.05c0.07,1.34-0.91,2.07-1.72,2.88c-6.32,6.35-12.65,12.69-18.98,19.03
			c-1.29,1.29-2.68,3.01-4.54,1.07c-1.7-1.79,0.14-3.01,1.24-4.12c6.41-6.5,12.86-12.95,19.32-19.4c0.91-0.91,1.81-2.09,3.39-1.4
			C276.39,67.45,276.85,68.13,276.87,69.05z"/>
		<path fill="#E62643" d="M276.98,88.28c-0.18,2.66-1.47,4.39-4.21,4.55c-2.98,0.17-4.76-1.49-4.82-4.37
			c-0.06-2.89,1.76-4.65,4.65-4.59C275.25,83.92,276.73,85.61,276.98,88.28z"/>
		<path fill="#E62643" d="M255.71,66.76c2.78,0.56,4.49,2.08,4.23,5.07c-0.24,2.72-1.95,4.12-4.64,4.02
			c-2.74-0.1-4.31-1.81-4.31-4.42C250.99,68.54,252.85,67.05,255.71,66.76z"/>
		<path fill="#FBEF06" d="M355.53,281.75c-4,0-7.99,0-11.99,0.01c0.02-9.99,0.04-19.97,0.06-29.96c3.97-0.02,7.94-0.04,11.91-0.06
			C355.51,261.74,355.52,271.75,355.53,281.75z"/>
		<path fill="#E9D907" d="M355.51,251.74c-3.97,0.02-7.94,0.04-11.91,0.06c-0.78-1.37-0.76-2.76-0.05-4.15
			c3.79,0.03,7.58,0.05,11.37,0.07C356.44,248.87,355.75,250.34,355.51,251.74z"/>
		<path fill="#E9D907" d="M354.74,285.73c-3.79-0.05-7.59-0.09-11.39-0.14c0.07-1.28,0.13-2.55,0.19-3.83
			c4-0.01,7.99-0.01,11.99-0.01C356.21,283.26,355.57,284.51,354.74,285.73z"/>
		<path fill="#FBEF06" d="M354.92,247.72c-3.79-0.02-7.58-0.04-11.37-0.07c0.02-1.27,0.03-2.55,0.05-3.82
			c3.77-0.02,7.54-0.04,11.31-0.06C354.92,245.09,354.92,246.41,354.92,247.72z"/>
		<path fill="#FBEF06" d="M383.84,281.75h-11.89c0.01-10.01,0.02-20.01,0.03-30.01h11.83C383.82,261.74,383.83,271.75,383.84,281.75
			z"/>
		<path fill="#FBEF06" d="M383.83,247.75h-11.87c0-1.34,0.01-2.68,0.02-4.01h11.84C383.82,245.08,383.83,246.42,383.83,247.75z"/>
		<path fill="#E9D907" d="M383.81,251.74h-11.83c-0.43-1.33-0.43-2.66-0.02-3.99h11.87C384.24,249.09,384.22,250.41,383.81,251.74z"
			/>
		<path fill="#E9D907" d="M383.9,285.73h-12.03c0.03-1.33,0.05-2.66,0.08-3.98h11.89C383.86,283.07,383.88,284.4,383.9,285.73z"/>
		<path fill="#130F09" d="M170.89,265.57c-5.52,0-10.47,0.03-15.43-0.02c-1.42-0.01-3.46,0.32-3.44-1.79
			c0.01-2.12,2.06-1.73,3.47-1.74c4.95-0.05,9.9-0.02,15.33-0.02c-1.43-4.29-4.04-6.1-7.89-6.21c-2.83-0.09-5.66-0.02-8.49-0.04
			c-1.2-0.01-2.49-0.12-2.48-1.72c0.01-1.68,1.45-1.61,2.57-1.61c7.99-0.03,15.97-0.02,23.96,0c0.99,0,2.13,0.12,2.27,1.4
			c0.18,1.62-1.02,1.89-2.27,1.92c-1.99,0.04-3.98,0.01-6.42,0.01c1.39,3.28,1.64,7.02,6.52,6.33c0.97-0.14,2.05,0.3,2.19,1.54
			c0.14,1.28-0.95,2.02-1.85,1.84c-3.93-0.78-4.89,1.99-6.39,4.62c-1.73,3.04-4.65,4.6-8.21,4.99c-1.78,0.19-3.66-0.39-6.12,1.08
			c4.75,4.66,9.37,9.12,13.89,13.68c1.05,1.06,3.38,2.23,1.8,3.96c-2,2.19-3.13-0.59-4.22-1.65c-5.27-5.08-10.42-10.29-15.56-15.5
			c-1-1.01-2.74-1.88-2.11-3.63c0.66-1.82,2.53-1.18,3.94-1.23c2.16-0.07,4.33-0.04,6.49-0.02
			C166.35,271.8,169.1,270.16,170.89,265.57z"/>
		<rect x="326.47" y="239.77" fill="#EFEFED" width="17.11" height="49.91"/>
		<rect x="354.49" y="239.74" fill="#EFEFED" width="17.54" height="49.94"/>
		<rect x="383.83" y="239.76" fill="#EFEFED" width="17.54" height="49.94"/>
		<circle fill="#E11E3C" cx="413.02" cy="171.88" r="5"/>
		<circle fill="#E11E3C" cx="397.84" cy="172.02" r="5"/>
		<circle fill="#E11E3C" cx="382.69" cy="171.88" r="5"/>
		<circle fill="#E11E3C" cx="382.69" cy="186.5" r="5"/>
		<circle fill="#E11E3C" cx="382.69" cy="201.76" r="5"/>
		<path id="XMLID_69_" fill="#FFA800" d="M515.76,155.33"/>
		<circle id="XMLID_68_" fill="#FBEF06" cx="499.15" cy="103.8" r="14.74"/>
		<path id="XMLID_65_" fill="#E11E3C" d="M499.15,120.25c-9.07,0-16.45-7.38-16.45-16.45c0-9.07,7.38-16.45,16.45-16.45
			c9.07,0,16.45,7.38,16.45,16.45C515.6,112.87,508.22,120.25,499.15,120.25z M499.15,90.77c-7.19,0-13.03,5.85-13.03,13.03
			c0,7.19,5.85,13.03,13.03,13.03s13.03-5.85,13.03-13.03C512.18,96.61,506.34,90.77,499.15,90.77z"/>
		<g id="XMLID_25_">
			<path id="XMLID_64_" fill="#E11E3C" d="M495.29,139.09h-0.45c-0.53,0-0.96-0.43-0.96-0.96v-14.24c0-0.53,0.43-0.96,0.96-0.96
				h0.45c0.53,0,0.96,0.43,0.96,0.96v14.24C496.25,138.66,495.82,139.09,495.29,139.09z"/>
			<path id="XMLID_47_" fill="#E11E3C" d="M503.46,139.5h-0.45c-0.53,0-0.96-0.43-0.96-0.96v-15.87c0-0.53,0.43-0.96,0.96-0.96h0.45
				c0.53,0,0.96,0.43,0.96,0.96v15.87C504.43,139.07,504,139.5,503.46,139.5z"/>
			<path id="XMLID_26_" fill="#E11E3C" d="M499.24,135.85h-0.45c-0.53,0-0.96-0.43-0.96-0.96v-10.24c0-0.53,0.43-0.96,0.96-0.96
				h0.45c0.53,0,0.96,0.43,0.96,0.96v10.24C500.21,135.41,499.78,135.85,499.24,135.85z"/>
		</g>
		<circle fill="#E11E3C" cx="437.1" cy="172.02" r="11.83"/>
		<ellipse id="XMLID_24_" fill="#EDEDED" cx="496.25" cy="203.74" rx="29.88" ry="4.5"/>
		<path id="XMLID_22_" fill="#FFA800" d="M551.38,181.21"/>
		<path id="XMLID_21_" fill="#E11E3C" d="M457.09,170.61c0-0.23,0.03-0.46,0.08-0.68c0.01-0.05,0.02-0.1,0.04-0.15
			c0.05-0.19,0.11-0.37,0.19-0.55c0.01-0.02,0.01-0.04,0.02-0.06c0.01-0.02,0.02-0.04,0.03-0.06c0.02-0.04,0.04-0.08,0.06-0.12
			c0.01-0.02,0.02-0.03,0.02-0.05c0.03-0.06,0.08-0.12,0.11-0.17c0.04-0.07,0.08-0.14,0.13-0.21c0.1-0.13,0.2-0.25,0.31-0.36
			c0,0,0.01-0.01,0.01-0.01l0,0l0,0c0.11-0.11,0.24-0.22,0.37-0.31c0.04-0.03,0.08-0.05,0.12-0.08c0.1-0.07,0.2-0.13,0.31-0.19
			c0.04-0.02,0.08-0.05,0.13-0.07c0.15-0.07,0.3-0.14,0.46-0.19l1.13-0.36l2.35-0.75c0.83-0.27,1.48-0.93,1.74-1.76
			c1.12-3.56,3.09-6.59,5.68-9.1c-1.24-4.83-1.24-11.11,0.38-11.95c1.97-1.03,9.65,2.28,12.66,3.66c0.36,0.16,0.66,0.4,0.92,0.69
			c4.49-1.28,9.36-1.91,14.24-1.91c16.6,0,30.21,7.19,31.62,22.96c0-0.01,0-0.02,0-0.03c0,0,0,0,0,0c0.02,0.22,0.04,0.43,0.05,0.65
			c0,0,0,0.01,0,0.01c0,0.02,0,0.04,0,0.06c0.01,0.09,0.01,0.18,0.02,0.27c0,0.08,0.01,0.17,0.01,0.25c0,0.03,0,0.05,0,0.08
			c0,0.08,0.01,0.17,0.01,0.25c0.01,0.15,0.01,0.3,0.02,0.46c0.01,0.25,0.01,0.5,0.01,0.75c0,1.27-0.08,2.5-0.23,3.68
			c0,0.01,0,0.02,0,0.03c-0.09,0.66-0.2,1.29-0.33,1.92c-0.04,0.19-0.09,0.38-0.13,0.57c-0.1,0.44-0.22,0.88-0.34,1.31
			c-0.03,0.09-0.05,0.19-0.07,0.28c-0.02,0.07-0.04,0.14-0.07,0.21c-0.06,0.17-0.11,0.35-0.17,0.52c-0.01,0.03-0.02,0.06-0.03,0.09
			c-0.01,0.03-0.02,0.05-0.03,0.08c-0.01,0.01-0.01,0.03-0.02,0.04c-0.16,0.46-0.34,0.92-0.53,1.36c-0.01,0.02-0.02,0.04-0.02,0.05
			c-0.01,0.02-0.01,0.03-0.02,0.05c-0.01,0.01-0.01,0.03-0.02,0.04c-0.09,0.21-0.19,0.43-0.29,0.64c-0.02,0.03-0.03,0.07-0.05,0.1
			c-0.09,0.19-0.19,0.39-0.29,0.58c-0.01,0.02-0.02,0.03-0.03,0.05c0,0.01-0.01,0.02-0.01,0.02c0,0.01-0.01,0.02-0.01,0.02
			c-0.11,0.2-0.22,0.41-0.33,0.61c-0.02,0.04-0.05,0.09-0.07,0.13c-0.08,0.13-0.16,0.26-0.24,0.39c-0.07,0.12-0.14,0.23-0.21,0.35
			c-0.24,0.38-0.48,0.75-0.74,1.1c-0.01,0.01-0.02,0.03-0.03,0.04c-0.01,0.02-0.03,0.03-0.04,0.05c-0.02,0.03-0.04,0.05-0.06,0.08
			c-0.1,0.14-0.21,0.28-0.32,0.42c-0.04,0.05-0.08,0.11-0.13,0.16c-0.14,0.18-0.29,0.37-0.44,0.54c0,0,0,0,0,0
			c-0.15,0.18-0.3,0.35-0.46,0.53c-0.05,0.05-0.1,0.1-0.14,0.16c-0.12,0.13-0.23,0.25-0.35,0.38c-0.02,0.02-0.04,0.04-0.06,0.07
			c-0.02,0.02-0.03,0.03-0.05,0.05c-0.01,0.01-0.02,0.02-0.03,0.04c-0.16,0.17-0.33,0.33-0.5,0.5c0,0,0,0,0,0
			c-0.19,0.18-0.38,0.36-0.57,0.54c-0.39,0.35-0.79,0.69-1.2,1.02c-0.41,0.33-0.84,0.65-1.28,0.95c-0.22,0.15-0.44,0.3-0.67,0.45
			c-0.2,0.13-0.41,0.26-0.62,0.39c-0.02,0.01-0.03,0.02-0.05,0.03c-0.02,0.01-0.04,0.02-0.05,0.03c-0.03,0.02-0.05,0.03-0.08,0.05
			c-0.16,0.09-0.31,0.19-0.47,0.28c-0.06,0.04-0.13,0.07-0.19,0.11c-0.21,0.12-0.43,0.24-0.64,0.36c0,0,0,0,0,0
			c-0.09,0.05-0.17,0.12-0.23,0.19c-0.01,0.01-0.01,0.01-0.01,0.02c-0.06,0.08-0.1,0.17-0.12,0.27c0,0,0,0,0,0.01l-1.73,8.99
			c-0.02,0.11-0.05,0.21-0.09,0.31c-0.02,0.05-0.04,0.1-0.06,0.14c-0.02,0.05-0.05,0.09-0.07,0.14c-0.03,0.04-0.05,0.09-0.08,0.13
			c-0.03,0.04-0.06,0.08-0.1,0.12c-0.04,0.04-0.08,0.09-0.12,0.13c-0.01,0.01-0.03,0.02-0.04,0.04c-0.01,0.01-0.03,0.02-0.04,0.04
			c-0.01,0.01-0.02,0.02-0.03,0.02c-0.01,0.01-0.01,0.01-0.02,0.02c-0.02,0.01-0.03,0.02-0.05,0.04c-0.03,0.02-0.07,0.05-0.1,0.07
			c-0.02,0.01-0.03,0.02-0.05,0.03c0,0-0.01,0-0.01,0.01c-0.01,0-0.01,0.01-0.02,0.01c-0.04,0.02-0.08,0.05-0.12,0.07c0,0,0,0,0,0
			c-0.04,0.02-0.08,0.04-0.13,0.05c-0.01,0-0.01,0.01-0.02,0.01c0,0-0.01,0-0.01,0.01c-0.02,0.01-0.04,0.01-0.05,0.02
			c-0.04,0.01-0.08,0.02-0.12,0.03c-0.02,0-0.04,0.01-0.06,0.01c-0.01,0-0.02,0-0.03,0c-0.01,0-0.03,0-0.04,0.01
			c-0.02,0-0.04,0.01-0.05,0.01c-0.02,0-0.04,0.01-0.06,0.01c-0.06,0.01-0.12,0.01-0.18,0.01h0h-5.85c-0.01,0-0.02,0-0.03,0
			c-0.11,0-0.22-0.01-0.33-0.04c-0.04-0.01-0.08-0.02-0.12-0.03c-0.08-0.02-0.15-0.05-0.22-0.08c-0.02-0.01-0.04-0.01-0.06-0.02
			c-0.02-0.01-0.05-0.03-0.07-0.04c-0.04-0.02-0.08-0.05-0.12-0.07c-0.02-0.01-0.05-0.02-0.07-0.04c-0.02-0.02-0.04-0.04-0.06-0.05
			c-0.04-0.03-0.08-0.06-0.11-0.09c-0.02-0.02-0.04-0.03-0.06-0.05c-0.01-0.01-0.02-0.03-0.03-0.04c-0.09-0.1-0.18-0.2-0.25-0.32
			c0,0,0,0,0,0c-0.05-0.09-0.1-0.18-0.14-0.28c-0.04-0.1-0.07-0.2-0.09-0.31l-0.95-5c-0.02-0.09-0.05-0.17-0.1-0.24
			c0,0-0.01-0.01-0.01-0.01c-0.03-0.05-0.08-0.09-0.12-0.13c-0.05-0.05-0.12-0.09-0.18-0.12c-0.03-0.01-0.06-0.03-0.09-0.04
			c-0.01,0-0.03-0.01-0.04-0.01c-0.08-0.02-0.16-0.03-0.24-0.02c0,0,0,0-0.01,0c-0.31,0.04-0.63,0.07-0.95,0.1
			c-0.08,0.01-0.16,0.02-0.24,0.02c-0.32,0.03-0.64,0.06-0.96,0.08c0,0,0,0,0,0c-0.22,0.02-0.43,0.03-0.65,0.04
			c-0.04,0-0.09,0.01-0.13,0.01c-0.06,0-0.12,0.01-0.18,0.01c-0.08,0-0.16,0.01-0.24,0.01c-0.32,0.02-0.65,0.03-0.98,0.04
			c-0.49,0.01-0.99,0.02-1.48,0.02c-0.66,0-1.33-0.01-1.99-0.04c-0.34-0.01-0.68-0.03-1.02-0.05c-0.03,0-0.07,0-0.1-0.01
			c-0.28-0.02-0.57-0.04-0.85-0.06c-0.01,0-0.01,0-0.02,0c-0.02,0-0.03,0-0.05,0c-0.01,0-0.01,0-0.02,0
			c-0.27-0.02-0.53-0.05-0.79-0.08c-0.39-0.04-0.78-0.07-1.16-0.11c-0.02,0-0.04,0-0.06-0.01c0,0,0,0-0.01,0
			c-0.31-0.04-0.61-0.07-0.91-0.11c-0.15-0.02-0.29-0.04-0.44-0.06c-0.16-0.02-0.32-0.04-0.48-0.07c-0.09-0.01-0.18-0.01-0.26,0.01
			c-0.02,0-0.04,0.02-0.06,0.02c-0.06,0.02-0.11,0.04-0.16,0.07c-0.03,0.02-0.05,0.04-0.08,0.06c-0.04,0.03-0.07,0.06-0.1,0.1
			c-0.02,0.03-0.04,0.06-0.06,0.1c-0.03,0.06-0.06,0.12-0.08,0.19c0,0,0,0.01,0,0.01l-0.5,2.63l-0.5,2.63
			c-0.16,0.85-0.9,1.46-1.76,1.46h-5.85c0,0,0,0,0,0c-0.06,0-0.12,0-0.18-0.01c-0.02,0-0.04-0.01-0.06-0.01
			c-0.02,0-0.04-0.01-0.05-0.01c-0.01,0-0.03,0-0.04-0.01c-0.01,0-0.02,0-0.03,0c-0.02,0-0.04-0.01-0.06-0.01
			c-0.04-0.01-0.08-0.02-0.12-0.03c-0.02-0.01-0.04-0.01-0.05-0.02c0,0-0.01,0-0.01,0c-0.01,0-0.02-0.01-0.03-0.01
			c-0.04-0.02-0.08-0.03-0.12-0.05c0,0,0,0,0,0c-0.04-0.02-0.08-0.04-0.11-0.06c-0.01-0.01-0.02-0.01-0.03-0.02c0,0-0.01,0-0.01,0
			c-0.02-0.01-0.03-0.02-0.05-0.03c-0.03-0.02-0.07-0.04-0.1-0.07c-0.02-0.01-0.03-0.02-0.05-0.04c-0.01,0-0.01-0.01-0.02-0.01
			c-0.01-0.01-0.03-0.02-0.04-0.04c-0.01-0.01-0.02-0.02-0.03-0.03c-0.01-0.01-0.03-0.02-0.04-0.04c-0.04-0.04-0.08-0.08-0.12-0.13
			c0,0,0,0,0,0l0,0c-0.01-0.02-0.03-0.03-0.04-0.05c-0.05-0.06-0.09-0.12-0.13-0.18c-0.11-0.18-0.19-0.38-0.23-0.6l-1.8-9.52
			c-0.04-0.21-0.18-0.4-0.37-0.5l0,0c-0.14-0.07-0.28-0.15-0.42-0.22c-0.15-0.08-0.29-0.15-0.44-0.23
			c-0.12-0.07-0.25-0.14-0.37-0.21c-0.15-0.09-0.31-0.18-0.46-0.27c-0.13-0.08-0.25-0.15-0.37-0.23c-0.15-0.09-0.29-0.18-0.44-0.27
			c-0.13-0.08-0.26-0.17-0.38-0.25c-0.14-0.09-0.27-0.18-0.41-0.27c-0.13-0.09-0.25-0.18-0.37-0.26c-0.13-0.09-0.26-0.18-0.39-0.28
			c-0.12-0.09-0.24-0.18-0.36-0.27c-0.13-0.1-0.26-0.19-0.39-0.29l0,0c0,0,0,0,0,0c-0.12-0.09-0.23-0.18-0.34-0.28
			c-0.13-0.1-0.26-0.2-0.38-0.31c-0.11-0.1-0.23-0.2-0.34-0.29c-0.12-0.1-0.24-0.2-0.35-0.3c0,0-0.01,0-0.01-0.01l0,0
			c-0.11-0.1-0.21-0.2-0.32-0.3c-0.12-0.11-0.24-0.22-0.35-0.33c-0.1-0.1-0.2-0.21-0.31-0.31c-0.11-0.11-0.22-0.22-0.33-0.33
			c0,0-0.01-0.01-0.01-0.01c0,0,0,0,0,0c-0.1-0.11-0.2-0.21-0.3-0.32c-0.11-0.12-0.22-0.23-0.32-0.35c-0.1-0.11-0.19-0.22-0.28-0.33
			c-0.1-0.11-0.2-0.23-0.29-0.34c0-0.01-0.01-0.01-0.02-0.02l0,0c-0.09-0.11-0.18-0.23-0.27-0.34c-0.1-0.12-0.2-0.25-0.29-0.37
			c-0.09-0.12-0.17-0.24-0.26-0.35c-0.08-0.12-0.17-0.23-0.25-0.35c-0.01-0.01-0.02-0.02-0.02-0.03c-0.08-0.12-0.16-0.24-0.24-0.36
			c-0.09-0.13-0.17-0.26-0.26-0.39c-0.1-0.16-0.2-0.33-0.3-0.49c-0.05-0.08-0.1-0.17-0.15-0.26c0-0.01-0.01-0.01-0.01-0.02
			c-0.32-0.56-0.83-0.98-1.44-1.18l-0.01,0h0l-2.86-0.92l-2.75-0.88c-0.71-0.23-1.31-0.67-1.73-1.25c-0.42-0.57-0.66-1.28-0.66-2.03
			V170.61z"/>
		<circle id="XMLID_20_" fill="#FEFBFB" cx="478.43" cy="162" r="2.23"/>
		<g id="XMLID_18_">
			<path id="XMLID_19_" fill="#F4D90C" d="M490.6,154.93c-0.7,0-1.38-0.36-1.71-0.98c-0.47-0.88-0.09-1.94,0.86-2.38
				c0.31-0.15,7.83-3.53,19.42-0.26c1.01,0.29,1.58,1.27,1.27,2.21c-0.31,0.94-1.38,1.47-2.39,1.18
				c-10.15-2.86-16.53,0.01-16.6,0.04C491.18,154.87,490.89,154.93,490.6,154.93z"/>
		</g>
		<text transform="matrix(1 0 0 1 495.0653 109.0694)" fill="#706D71" font-family="'MyriadPro-Bold'" font-size="15.103">₹</text>
		<rect x="354.49" y="299.37" fill="#FBEF06" width="18.26" height="5.56"/>
	</g>
</g>
<g id="Layer_7">
</g>
</svg>
