<svg xmlns="http://www.w3.org/2000/svg" viewBox="0 0 80 80" width="80" height="80">
	<style>
		tspan { white-space:pre }
		.shp0 { fill: #000000 } 
	</style>
	<g id="Layer">
		<path id="Layer" class="shp0" d="M61.16 12.63C61.29 12.67 61.42 12.73 61.55 12.77C62.98 13.19 64.02 14.45 64.03 15.93C64.06 20.65 64.04 25.38 64.04 30.11C64.04 30.17 64.02 30.24 64.01 30.29C62.92 30.08 61.83 29.89 60.66 29.67C60.66 27.5 60.66 25.24 60.66 22.95C45.73 22.95 30.86 22.95 15.96 22.95C15.96 35.54 15.96 48.11 15.96 60.75C20.77 60.75 25.57 60.75 30.47 60.75C30.22 61.93 30 63.04 29.76 64.17C28.18 64.17 26.62 64.17 25.07 64.17C20.88 64.18 16.69 64.18 12.5 64.19C12.5 47.97 12.5 31.75 12.5 15.53C12.55 15.41 12.6 15.31 12.63 15.19C12.93 14.16 13.55 13.41 14.52 12.96C14.8 12.83 15.11 12.74 15.4 12.63C30.65 12.63 45.91 12.63 61.16 12.63Z" />
		<path id="Layer" fill-rule="evenodd" class="shp0" d="M53.48 37.34C56.8 40.66 60.05 43.91 63.32 47.19C63.25 47.26 63.17 47.37 63.07 47.47C57.63 52.96 52.2 58.46 46.74 63.93C46.26 64.41 45.66 64.84 45.03 65.1C41.99 66.35 38.8 67.06 35.57 67.58C34.22 67.8 32.94 66.45 33.17 65.09C33.67 62.14 34.36 59.24 35.41 56.44C35.78 55.44 36.35 54.58 37.12 53.81C42.45 48.51 47.75 43.19 53.06 37.87C53.23 37.7 53.35 37.5 53.48 37.34ZM45.06 62.22C42.86 60.02 40.75 57.91 38.6 55.76C38.45 56.04 38.23 56.34 38.13 56.67C37.59 58.59 37.03 60.51 36.58 62.45C36.33 63.53 37.27 64.4 38.37 64.16C40.08 63.79 41.78 63.35 43.46 62.9C44.02 62.75 44.53 62.45 45.06 62.22Z" />
		<path id="Layer" class="shp0" d="M52.66 33.24C51.53 34.4 50.48 35.48 49.42 36.53C49.33 36.63 49.13 36.66 48.98 36.66C43.8 36.67 38.6 36.67 33.41 36.67C33.35 36.67 33.28 36.65 33.18 36.64C33.18 33.24 33.18 29.85 33.18 26.42C41.16 26.42 49.13 26.42 57.17 26.42C57.17 27.7 57.17 28.96 57.16 30.23C57.16 30.31 57.07 30.42 56.99 30.46C55.93 31.03 54.87 31.6 53.77 32.18C53.77 31.43 53.77 30.64 53.77 29.82C48.01 29.82 42.31 29.82 36.58 29.82C36.58 30.96 36.58 32.08 36.58 33.24C41.91 33.24 47.24 33.24 52.66 33.24Z" />
		<path id="Layer" class="shp0" d="M65.37 45.35C62.05 42.03 58.8 38.77 55.47 35.44C57.16 34 59.03 32.99 61.33 33.32C64.32 33.74 66.34 35.47 67.19 38.36C67.97 40.99 67.24 43.32 65.37 45.35Z" />
		<path id="Layer" class="shp0" d="M64.03 51.57C64.03 55.8 64.03 59.95 64.03 64.14C59.87 64.14 55.73 64.14 51.52 64.14C51.65 63.98 51.74 63.86 51.84 63.76C52.51 63.08 53.23 62.45 53.84 61.72C54.46 60.97 55.16 60.69 56.15 60.75C57.61 60.84 59.08 60.77 60.64 60.77C60.64 60.56 60.64 60.37 60.64 60.19C60.64 58.58 60.63 56.97 60.66 55.35C60.66 55.1 60.79 54.8 60.96 54.62C61.94 53.61 62.96 52.63 64.03 51.57Z" />
		<path id="Layer" class="shp0" d="M33.17 43.59C36.23 43.59 39.24 43.59 42.32 43.59C42.21 43.73 42.14 43.85 42.05 43.94C41.14 44.85 40.25 45.77 39.31 46.66C39.13 46.83 38.83 46.94 38.57 46.96C37.92 47 37.26 46.97 36.55 46.97C36.55 47.67 36.53 48.31 36.55 48.95C36.57 49.31 36.45 49.58 36.19 49.84C35.16 50.85 34.16 51.89 33.17 52.91C33.17 49.86 33.17 46.75 33.17 43.59Z" />
		<path id="Layer" class="shp0" d="M29.63 33.21C26.22 33.21 22.84 33.21 19.43 33.21C19.43 32.1 19.43 31 19.43 29.87C22.81 29.87 26.2 29.87 29.63 29.87C29.63 30.96 29.63 32.05 29.63 33.21Z" />
		<path id="Layer" class="shp0" d="M19.42 47.04C22.85 47.04 26.22 47.04 29.63 47.04C29.63 48.16 29.63 49.26 29.63 50.39C26.23 50.39 22.85 50.39 19.42 50.39C19.42 49.28 19.42 48.19 19.42 47.04Z" />
	</g>
</svg>