<svg xmlns="http://www.w3.org/2000/svg" viewBox="0 0 288 288" width="288" height="288">
	<style>
		tspan { white-space:pre }
		.shp0 { fill: #ffffff } 
	</style>
	<g id="SvgjsG1015">
		<g id="Layer">
			<path id="Layer" class="shp0" d="M220.18 45.45C220.65 45.62 221.11 45.83 221.59 45.97C226.73 47.48 230.48 52 230.51 57.34C230.6 74.35 230.54 91.36 230.54 108.38C230.54 108.62 230.47 108.87 230.45 109.03C226.49 108.31 222.6 107.59 218.39 106.82C218.39 99.01 218.39 90.88 218.39 82.63C164.62 82.63 111.1 82.63 57.45 82.63C57.45 127.94 57.45 173.2 57.45 218.69C74.76 218.69 92.06 218.69 109.68 218.69C108.8 222.95 107.98 226.93 107.14 231.02C101.43 231.02 95.84 231.01 90.24 231.02C75.16 231.03 60.08 231.06 45 231.08C45 172.68 45 114.29 45 55.89C45.16 55.49 45.35 55.1 45.47 54.68C46.54 50.99 48.77 48.26 52.27 46.65C53.29 46.18 54.39 45.85 55.44 45.45C110.35 45.45 165.27 45.45 220.18 45.45Z" />
			<path id="Layer" fill-rule="evenodd" class="shp0" d="M192.53 134.43C204.49 146.39 216.18 158.09 227.95 169.87C227.71 170.14 227.41 170.54 227.06 170.89C207.47 190.66 187.91 210.46 168.25 230.16C166.53 231.89 164.37 233.43 162.12 234.35C151.17 238.85 139.68 241.42 128.05 243.3C123.19 244.09 118.58 239.21 119.41 234.31C121.2 223.7 123.71 213.27 127.48 203.17C128.82 199.57 130.85 196.47 133.62 193.72C152.81 174.64 171.9 155.47 191.02 136.31C191.61 135.72 192.07 135.01 192.53 134.43ZM162.23 224C154.29 216.06 146.7 208.47 138.95 200.72C138.41 201.75 137.62 202.81 137.28 204C135.33 210.92 133.3 217.83 131.7 224.83C130.8 228.72 134.19 231.85 138.14 230.98C144.29 229.64 150.4 228.07 156.47 226.43C158.47 225.89 160.33 224.82 162.23 224ZM189.59 119.68C185.5 123.85 181.74 127.71 177.92 131.53C177.57 131.87 176.88 131.99 176.35 131.99C157.66 132.02 138.98 132.02 120.29 132.01C120.05 132.01 119.8 131.95 119.43 131.91C119.43 119.66 119.43 107.46 119.43 95.13C148.17 95.13 176.86 95.13 205.8 95.13C205.8 99.72 205.81 104.27 205.77 108.82C205.77 109.11 205.46 109.51 205.18 109.66C201.36 111.72 197.52 113.75 193.57 115.84C193.57 113.15 193.57 110.3 193.57 107.35C172.83 107.35 152.31 107.35 131.68 107.35C131.68 111.46 131.68 115.48 131.68 119.68C150.88 119.68 170.05 119.68 189.59 119.68ZM235.33 163.26C223.39 151.31 211.67 139.56 199.7 127.57C205.76 122.39 212.52 118.77 220.79 119.94C231.54 121.47 238.81 127.68 241.89 138.09C244.7 147.56 242.07 155.94 235.33 163.26ZM230.5 185.65C230.5 200.89 230.5 215.82 230.5 230.89C215.53 230.89 200.63 230.89 185.47 230.89C185.94 230.34 186.26 229.9 186.63 229.52C189.04 227.09 191.63 224.82 193.81 222.21C196.06 219.5 198.59 218.47 202.14 218.69C207.4 219.01 212.7 218.77 218.31 218.77C218.31 218.02 218.31 217.35 218.31 216.67C218.31 210.87 218.27 205.07 218.37 199.27C218.38 198.37 218.83 197.27 219.46 196.63C222.99 192.99 226.65 189.45 230.5 185.65ZM119.42 156.91C130.45 156.91 141.26 156.91 152.36 156.91C151.95 157.44 151.71 157.84 151.39 158.17C148.12 161.46 144.89 164.78 141.53 167.98C140.88 168.6 139.78 168.99 138.86 169.05C136.51 169.2 134.14 169.1 131.56 169.1C131.56 171.6 131.49 173.91 131.59 176.2C131.64 177.53 131.23 178.47 130.28 179.41C126.59 183.07 122.99 186.81 119.42 190.47C119.42 179.5 119.42 168.3 119.42 156.91ZM106.66 119.56C94.38 119.56 82.24 119.56 69.94 119.56C69.94 115.56 69.94 111.61 69.94 107.52C82.13 107.52 94.32 107.52 106.66 107.52C106.66 111.45 106.66 115.39 106.66 119.56ZM69.93 169.35C82.26 169.35 94.4 169.35 106.68 169.35C106.68 173.38 106.68 177.33 106.68 181.4C94.44 181.4 82.25 181.4 69.93 181.4C69.93 177.42 69.93 173.47 69.93 169.35Z" />
		</g>
	</g>
</svg>