<?xml version="1.0" encoding="utf-8"?>
<!-- Generator: Adobe Illustrator 17.0.0, SVG Export Plug-In . SVG Version: 6.00 Build 0)  -->
<!DOCTYPE svg PUBLIC "-//W3C//DTD SVG 1.1//EN" "http://www.w3.org/Graphics/SVG/1.1/DTD/svg11.dtd">
<svg version="1.1" id="Layer_1" xmlns="http://www.w3.org/2000/svg" xmlns:xlink="http://www.w3.org/1999/xlink" x="0px" y="0px"
	 width="80px" height="80px" viewBox="0 0 80 80" enable-background="new 0 0 80 80" xml:space="preserve">
<g>
	<path fill="#FFFFFF" d="M59.862,13.11c0.117,0.044,0.232,0.095,0.352,0.13c1.286,0.377,2.223,1.509,2.23,2.844
		c0.023,4.255,0.009,8.509,0.009,12.764c0,0.061-0.018,0.122-0.024,0.164c-0.989-0.182-1.964-0.361-3.015-0.554
		c0-1.952,0-3.986,0-6.05c-13.448,0-26.832,0-40.249,0c0,11.33,0,22.651,0,34.028c4.328,0,8.654,0,13.061,0
		c-0.219,1.064-0.424,2.059-0.635,3.082c-1.427,0-2.827-0.001-4.227,0c-3.771,0.004-7.542,0.01-11.313,0.015
		c0-14.604,0-29.208,0-43.812c0.039-0.101,0.087-0.199,0.116-0.302c0.267-0.925,0.824-1.606,1.702-2.01
		c0.256-0.118,0.528-0.2,0.793-0.299C32.395,13.11,46.128,13.11,59.862,13.11z"/>
	<path fill="#FFFFFF" d="M31.471,31.644c-3.071,0-6.108,0-9.183,0c0-1,0-1.988,0-3.011c3.047,0,6.097,0,9.183,0
		C31.471,29.615,31.471,30.603,31.471,31.644z"/>
	<path fill="#FFFFFF" d="M22.284,44.096c3.083,0,6.121,0,9.191,0c0,1.007,0,1.995,0,3.014c-3.06,0-6.109,0-9.191,0
		C22.284,46.114,22.284,45.126,22.284,44.096z"/>
	<g>
		<path fill="#FFFFFF" d="M59.144,40.347c-3.764-3.27-7.762-4.482-12.175-2.907c-5.653,2.017-8.6,6.18-8.655,12.447
			c-1.082,0.055-2.175,0.11-3.254,0.164c-0.972-4.544,2.442-11.228,7.082-14.092c5.514-3.404,13.562-3.373,19.423,1.878
			c1.324-1.376,2.657-2.762,4.123-4.284c0,3.753,0,7.297,0,10.896c-3.628,0-7.181,0-10.849,0
			C56.285,43.072,57.649,41.772,59.144,40.347z"/>
		<path fill="#FFFFFF" d="M39.618,60.556c-1.281,1.373-2.571,2.757-4.041,4.334c0-3.83,0-7.369,0-10.953c3.601,0,7.148,0,10.825,0
			c-1.449,1.412-2.802,2.729-4.138,4.031c2.33,2.984,7.502,4.318,11.632,3.11c5.391-1.577,8.403-5.708,9.076-12.593
			c1.066-0.052,2.157-0.105,3.239-0.158c0.513,3.716-1.345,10.343-6.899,13.946C54.436,65.435,46.132,66.269,39.618,60.556z"/>
	</g>
	<path fill="#FFFFFF" d="M55.284,31.202c-6.082,0-12.099,0-18.188,0c0-1,0-1.988,0-3.011c6.036,0,12.076,0,18.188,0
		C55.284,29.172,55.284,30.16,55.284,31.202z"/>
</g>
</svg>
