<?xml version="1.0" encoding="utf-8"?>
<!-- Generator: Adobe Illustrator 17.0.0, SVG Export Plug-In . SVG Version: 6.00 Build 0)  -->
<!DOCTYPE svg PUBLIC "-//W3C//DTD SVG 1.1//EN" "http://www.w3.org/Graphics/SVG/1.1/DTD/svg11.dtd">
<svg version="1.1" id="Layer_1" xmlns="http://www.w3.org/2000/svg" xmlns:xlink="http://www.w3.org/1999/xlink" x="0px" y="0px"
	 width="80px" height="80px" viewBox="0 0 80 80" enable-background="new 0 0 80 80" xml:space="preserve">
<path fill="#FFFFFF" d="M61.226,12.97c0.129,0.048,0.256,0.104,0.388,0.143c1.419,0.416,2.454,1.666,2.462,3.14
	c0.025,4.697,0.01,9.395,0.009,14.093c0,0.067-0.02,0.135-0.027,0.181c-1.091-0.2-2.168-0.398-3.329-0.611c0-2.155,0-4.401,0-6.679
	c-14.848,0-29.625,0-44.439,0c0,12.51,0,25.009,0,37.57c4.779,0,9.555,0,14.421,0c-0.242,1.175-0.468,2.274-0.701,3.403
	c-1.575,0-3.121-0.001-4.667,0c-4.164,0.005-8.327,0.011-12.491,0.017c0-16.124,0-32.248,0-48.373
	c0.043-0.111,0.096-0.22,0.129-0.334c0.295-1.021,0.91-1.773,1.879-2.219c0.283-0.13,0.583-0.221,0.876-0.33
	C30.9,12.97,46.063,12.97,61.226,12.97z"/>
<path fill="#FFFFFF" d="M29.762,33.362c-3.437,0-6.837,0-10.278,0c0-1.12,0-2.225,0-3.37c3.411,0,6.824,0,10.278,0
	C29.762,31.091,29.762,32.197,29.762,33.362z"/>
<path fill="#FFFFFF" d="M19.479,47.298c3.451,0,6.851,0,10.287,0c0,1.127,0,2.233,0,3.373c-3.425,0-6.837,0-10.287,0
	C19.479,49.558,19.479,48.452,19.479,47.298z"/>
<g>
	<path fill="#FFFFFF" d="M60.736,43.103c-4.213-3.66-8.688-5.017-13.627-3.254c-6.328,2.258-9.626,6.917-9.687,13.932
		c-1.211,0.061-2.435,0.123-3.642,0.184c-1.088-5.086,2.733-12.567,7.926-15.773c6.172-3.81,15.18-3.776,21.74,2.103
		c1.482-1.54,2.974-3.091,4.614-4.795c0,4.2,0,8.168,0,12.195c-4.06,0-8.037,0-12.142,0C57.535,46.153,59.062,44.698,60.736,43.103z
		"/>
	<path fill="#FFFFFF" d="M38.88,65.722c-1.433,1.537-2.878,3.086-4.523,4.851c0-4.287,0-8.248,0-12.259c4.03,0,8,0,12.116,0
		c-1.622,1.58-3.136,3.055-4.631,4.511c2.608,3.34,8.397,4.833,13.019,3.481c6.034-1.765,9.405-6.388,10.159-14.095
		c1.193-0.058,2.415-0.118,3.625-0.177c0.574,4.159-1.505,11.576-7.722,15.609C55.466,71.183,46.172,72.116,38.88,65.722z"/>
</g>
<path fill="#FFFFFF" d="M56.416,32.867c-6.808,0-13.541,0-20.357,0c0-1.12,0-2.225,0-3.37c6.756,0,13.516,0,20.357,0
	C56.416,30.596,56.416,31.701,56.416,32.867z"/>
<path fill="#FFFFFF" d="M56.33,50.229c-0.148-0.27-0.431-0.437-0.738-0.437h-3.492l0.958-5.748c0.064-0.385-0.145-0.762-0.503-0.913
	c-0.358-0.154-0.775-0.037-1.005,0.278l-6.167,8.41c-0.187,0.255-0.215,0.594-0.072,0.877c0.143,0.281,0.434,0.46,0.75,0.46h3.527
	l-0.913,6.897c-0.053,0.391,0.174,0.766,0.545,0.901c0.093,0.035,0.191,0.051,0.287,0.051c0.28,0,0.551-0.14,0.709-0.388
	l6.086-9.531C56.466,50.827,56.477,50.498,56.33,50.229L56.33,50.229z M56.33,50.229"/>
</svg>
