<svg xmlns="http://www.w3.org/2000/svg" viewBox="0 0 80 80" width="80" height="80">
	<style>
		tspan { white-space:pre }
		.shp0 { fill: #000000 } 
	</style>
	<g id="Layer">
		<path id="Layer" class="shp0" d="M61.34 12.62C61.36 12.65 61.38 12.68 61.41 12.7C63.5 13.57 64.08 14.41 64.08 16.66C64.08 23.43 64.08 30.19 64.08 36.95C64.08 37.11 64.08 37.27 64.08 37.52C63.89 37.39 63.77 37.32 63.66 37.25C62.8 36.68 61.96 36.09 61.08 35.57C60.75 35.37 60.63 35.17 60.64 34.8C60.65 31.1 60.64 27.39 60.64 23.69C60.64 23.48 60.64 23.26 60.64 22.99C45.75 22.99 30.9 22.99 16 22.99C16 35.54 16 48.1 16 60.73C16.22 60.74 16.45 60.76 16.68 60.76C22.66 60.76 28.63 60.77 34.61 60.75C35.05 60.75 35.27 60.89 35.5 61.28C36.06 62.25 36.7 63.18 37.36 64.2C37.13 64.2 36.94 64.2 36.75 64.2C28.91 64.2 21.06 64.2 13.22 64.2C12.98 64.2 12.74 64.2 12.5 64.21C12.5 47.93 12.5 31.65 12.5 15.37C12.58 15.21 12.66 15.05 12.72 14.88C13.06 13.99 13.65 13.34 14.52 12.94C14.76 12.83 15.01 12.73 15.25 12.62C30.61 12.62 45.98 12.62 61.34 12.62Z" />
		<path id="Layer" fill-rule="evenodd" class="shp0" d="M50.56 67.62C49.88 67.49 49.19 67.38 48.52 67.22C41.83 65.66 36.9 59.77 36.59 53.01C36.27 45.92 40.6 39.61 47.26 37.45C56.46 34.46 66.09 40.53 67.39 50.15C67.41 50.33 67.46 50.5 67.5 50.68C67.5 51.67 67.5 52.66 67.5 53.65C67.46 53.81 67.42 53.97 67.39 54.13C66.54 60.57 61.9 65.72 55.57 67.22C54.9 67.38 54.21 67.49 53.53 67.62C52.54 67.62 51.55 67.62 50.56 67.62ZM50.22 39.62C50.22 43.05 50.22 46.45 50.22 49.93C46.75 49.93 43.34 49.93 39.94 49.93C39.94 51.18 39.94 52.34 39.94 53.57C43.37 53.57 46.77 53.57 50.23 53.57C50.23 56.99 50.23 60.35 50.23 63.73C51.43 63.73 52.58 63.73 53.78 63.73C53.78 60.33 53.78 56.97 53.78 53.54C57.24 53.54 60.63 53.54 64.03 53.54C64.03 52.3 64.03 51.12 64.03 49.88C60.59 49.88 57.19 49.88 53.73 49.88C53.73 46.42 53.73 43.03 53.73 39.62C52.54 39.62 51.41 39.62 50.22 39.62Z" />
		<path id="Layer" class="shp0" d="M33.17 26.41C41.17 26.41 49.13 26.41 57.15 26.41C57.15 28.91 57.15 31.4 57.15 33.9C56.01 33.69 54.9 33.49 53.75 33.28C53.75 32.15 53.75 31.02 53.75 29.85C48.02 29.85 42.33 29.85 36.61 29.85C36.61 30.98 36.61 32.09 36.61 33.26C41.11 33.26 45.58 33.26 50.05 33.26C50.05 33.28 50.05 33.29 50.05 33.31C49.11 33.5 48.16 33.66 47.22 33.89C45.17 34.4 43.29 35.29 41.53 36.44C41.34 36.57 41.11 36.69 40.89 36.69C38.42 36.71 35.94 36.7 33.47 36.7C33.38 36.7 33.29 36.68 33.17 36.66C33.17 33.24 33.17 29.84 33.17 26.41Z" />
		<path id="Layer" class="shp0" d="M19.41 33.22C19.41 32.1 19.41 31.01 19.41 29.86C22.82 29.86 26.22 29.86 29.66 29.86C29.66 30.97 29.66 32.08 29.66 33.22C26.24 33.22 22.84 33.22 19.41 33.22Z" />
		<path id="Layer" class="shp0" d="M19.41 50.41C19.41 49.29 19.41 48.2 19.41 47.06C22.82 47.06 26.21 47.06 29.66 47.06C29.66 48.16 29.66 49.27 29.66 50.41C26.24 50.41 22.85 50.41 19.41 50.41Z" />
	</g>
</svg>