<svg xmlns="http://www.w3.org/2000/svg" viewBox="0 0 80 80" width="80" height="80">
	<style>
		tspan { white-space:pre }
		.shp0 { fill: #000000 } 
	</style>
	<g id="Layer">
		<g id="Layer">
			<path id="Layer" class="shp0" d="M61.38 12.73C61.52 12.79 61.66 12.86 61.8 12.91C63.22 13.39 64.15 14.63 64.15 16.11C64.16 23.16 64.15 30.21 64.15 37.27C64.15 37.35 64.14 37.44 64.14 37.56C63.32 37.01 62.59 36.39 61.75 35.99C60.91 35.59 60.71 35.06 60.72 34.17C60.78 30.7 60.75 27.23 60.75 23.76C60.75 23.54 60.75 23.33 60.75 23.07C45.85 23.07 30.97 23.07 16.06 23.07C16.06 35.66 16.06 48.23 16.06 60.87C16.33 60.87 16.58 60.87 16.82 60.87C22.8 60.87 28.78 60.87 34.76 60.86C35.15 60.86 35.34 60.98 35.54 61.32C36.12 62.3 36.76 63.25 37.42 64.28C37.24 64.28 37.06 64.28 36.88 64.28C29.02 64.28 21.16 64.28 13.31 64.28C13.07 64.28 12.84 64.29 12.61 64.29C12.61 48.03 12.61 31.78 12.61 15.52C12.95 14.59 13.37 13.71 14.3 13.22C14.65 13.03 15.03 12.89 15.4 12.73C30.73 12.73 46.05 12.73 61.38 12.73Z" />
			<path id="Layer" fill-rule="evenodd" class="shp0" d="M50.85 67.73C50.08 67.58 49.31 67.46 48.55 67.29C42.23 65.84 37.4 60.32 36.77 53.87C35.99 45.77 41.26 38.67 49.27 37.06C57.41 35.42 65.71 40.99 67.28 49.14C67.39 49.75 67.5 50.36 67.61 50.97C67.61 51.83 67.61 52.69 67.61 53.55C67.56 53.81 67.5 54.07 67.47 54.33C66.61 60.67 61.92 65.83 55.68 67.3C54.93 67.47 54.18 67.59 53.43 67.73C52.57 67.73 51.71 67.73 50.85 67.73ZM59.34 42.52C56.93 44.93 54.52 47.35 52 49.87C49.6 47.45 47.19 45.03 44.84 42.67C44.07 43.44 43.29 44.22 42.45 45.05C44.84 47.43 47.26 49.83 49.77 52.31C47.3 54.78 44.89 57.18 42.56 59.52C43.34 60.3 44.14 61.08 44.97 61.92C47.32 59.56 49.72 57.16 52.18 54.7C54.59 57.13 56.99 59.55 59.36 61.94C60.19 61.1 60.98 60.31 61.82 59.46C59.44 57.09 57.02 54.69 54.54 52.22C56.99 49.77 59.4 47.37 61.79 44.98C60.99 44.19 60.22 43.4 59.34 42.52Z" />
			<path id="Layer" class="shp0" d="M33.26 36.73C33.26 33.32 33.26 29.94 33.26 26.52C41.26 26.52 49.23 26.52 57.24 26.52C57.24 29 57.24 31.48 57.24 33.97C56.12 33.77 55 33.57 53.85 33.36C53.85 32.26 53.85 31.12 53.85 29.94C48.13 29.94 42.43 29.94 36.7 29.94C36.7 31.05 36.7 32.17 36.7 33.34C41.26 33.34 45.83 33.34 50.4 33.34C47.15 33.73 44.18 34.8 41.47 36.63C41.35 36.71 41.18 36.77 41.03 36.77C38.5 36.78 35.98 36.78 33.46 36.78C33.41 36.78 33.36 36.75 33.26 36.73Z" />
			<path id="Layer" class="shp0" d="M29.76 29.97C29.76 31.1 29.76 32.19 29.76 33.3C26.35 33.3 22.96 33.3 19.53 33.3C19.53 32.21 19.53 31.11 19.53 29.97C22.92 29.97 26.32 29.97 29.76 29.97Z" />
			<path id="Layer" class="shp0" d="M29.76 47.16C29.76 48.29 29.76 49.38 29.76 50.5C26.35 50.5 22.96 50.5 19.53 50.5C19.53 49.4 19.53 48.3 19.53 47.16C22.92 47.16 26.32 47.16 29.76 47.16Z" />
		</g>
	</g>
</svg>