<svg xmlns="http://www.w3.org/2000/svg" viewBox="0 0 288 288" width="288" height="288">
	<style>
		tspan { white-space:pre }
		.shp0 { fill: #ffffff } 
	</style>
	<g id="SvgjsG1015">
		<g id="Layer">
			<path id="Layer" class="shp0" d="M45 55.43C45.09 55.34 45.23 55.27 45.28 55.16C48.38 47.64 51.54 45.53 59.73 45.53C112.19 45.53 164.65 45.6 217.11 45.45C224.29 45.43 230.81 50.67 230.75 59.06C230.55 83.74 230.68 108.41 230.68 133.09C230.68 133.67 230.68 134.24 230.68 135.25C229.02 134.04 227.71 133.01 226.31 132.09C224.22 130.72 222.12 129.33 219.92 128.15C218.69 127.5 218.28 126.77 218.29 125.4C218.34 112 218.32 98.6 218.32 85.21C218.32 84.44 218.32 83.67 218.32 82.8C164.64 82.8 111.21 82.8 57.6 82.8C57.6 128.05 57.6 173.26 57.6 218.73C58.38 218.76 59.21 218.84 60.04 218.84C81.55 218.84 103.06 218.86 124.57 218.8C126.16 218.8 126.98 219.29 127.78 220.68C129.82 224.19 132.12 227.54 134.48 231.2C133.68 231.2 132.99 231.2 132.3 231.2C104.06 231.2 75.82 231.2 47.57 231.2C46.72 231.2 45.86 231.23 45 231.24C45 172.64 45 114.03 45 55.43Z" />
			<path id="Layer" fill-rule="evenodd" class="shp0" d="M178.45 243.53C173.2 241.53 171.18 237.71 171.22 232.14C171.37 210.76 171.28 189.39 171.28 168.01C171.28 160.89 175.02 157.17 182.15 157.16C198.64 157.16 215.14 157.27 231.63 157.09C236.88 157.04 240.72 158.72 243 163.53C243 188.09 243 212.64 243 237.19C241.69 240.29 239.36 242.31 236.27 243.53C217 243.53 197.72 243.53 178.45 243.53ZM233.67 166.86C216.01 166.86 198.55 166.86 181.02 166.86C181.02 189.29 181.02 211.6 181.02 233.95C198.63 233.95 216.09 233.95 233.67 233.95C233.67 211.57 233.67 189.3 233.67 166.86ZM119.42 95.17C148.2 95.17 176.87 95.17 205.72 95.17C205.72 104.17 205.72 113.14 205.72 122.13C201.63 121.38 197.63 120.65 193.49 119.89C193.49 115.82 193.49 111.75 193.49 107.55C172.86 107.55 152.38 107.55 131.79 107.55C131.79 111.63 131.79 115.62 131.79 119.84C147.99 119.84 164.09 119.84 180.18 119.84C180.18 119.89 180.17 119.95 180.17 120.01C176.77 120.7 173.35 121.27 169.99 122.1C162.62 123.92 155.85 127.13 149.51 131.3C148.83 131.74 147.97 132.17 147.19 132.18C138.28 132.24 129.38 132.22 120.47 132.22C120.15 132.22 119.84 132.13 119.42 132.07C119.42 119.75 119.42 107.52 119.42 95.17Z" />
			<path id="Layer" class="shp0" d="M219.23 137.88C219.23 141.17 219.23 144.18 219.23 147.47C200.11 147.47 181.03 147.47 161.73 147.47C161.73 169.99 161.73 192.25 161.73 214.69C158.46 214.69 155.4 214.69 152.12 214.69C152.09 214.01 152.02 213.31 152.02 212.62C152.02 191.24 152.02 169.87 152.02 148.49C152.03 141.86 155.98 137.89 162.61 137.89C180.82 137.87 199.03 137.88 217.24 137.88C217.82 137.88 218.4 137.88 219.23 137.88ZM106.75 119.72C94.38 119.72 82.21 119.72 69.9 119.72C69.9 115.62 69.9 111.63 69.9 107.53C82.22 107.53 94.41 107.53 106.75 107.53C106.75 111.57 106.75 115.55 106.75 119.72ZM106.8 169.46C106.8 173.52 106.8 177.46 106.8 181.56C94.53 181.56 82.3 181.56 69.92 181.56C69.92 177.54 69.92 173.57 69.92 169.46C82.2 169.46 94.38 169.46 106.8 169.46Z" />
		</g>
	</g>
</svg>