<?xml version="1.0" encoding="utf-8"?>
<!-- Generator: Adobe Illustrator 17.0.0, SVG Export Plug-In . SVG Version: 6.00 Build 0)  -->
<!DOCTYPE svg PUBLIC "-//W3C//DTD SVG 1.1//EN" "http://www.w3.org/Graphics/SVG/1.1/DTD/svg11.dtd">
<svg version="1.1" id="Layer_1" xmlns="http://www.w3.org/2000/svg" xmlns:xlink="http://www.w3.org/1999/xlink" x="0px" y="0px"
	 width="80px" height="80px" viewBox="0 0 80 80" enable-background="new 0 0 80 80" xml:space="preserve">
<g>
	<path fill="#FFFFFF" d="M60.502,13.455c0.119,0.044,0.236,0.096,0.358,0.132c1.309,0.384,2.264,1.537,2.271,2.896
		c0.023,4.333,0.01,8.667,0.009,13c0,0.062-0.018,0.124-0.025,0.167c-1.007-0.185-2-0.367-3.071-0.564c0-1.988,0-4.06,0-6.162
		c-13.697,0-27.328,0-40.994,0c0,11.54,0,23.07,0,34.658c4.408,0,8.814,0,13.303,0c-0.223,1.084-0.432,2.097-0.647,3.139
		c-1.453,0-2.879-0.001-4.306,0c-3.841,0.004-7.682,0.01-11.522,0.015c0-14.874,0-29.748,0-44.623
		c0.04-0.102,0.088-0.203,0.119-0.308c0.272-0.942,0.84-1.636,1.733-2.047c0.261-0.12,0.538-0.204,0.808-0.305
		C32.526,13.455,46.514,13.455,60.502,13.455z"/>
	<path fill="#FFFFFF" d="M52.709,32.362c-1.042,1.062-2.001,2.047-2.974,3.017c-0.087,0.087-0.264,0.119-0.4,0.119
		c-4.759,0.006-9.519,0.005-14.278,0.004c-0.063,0-0.126-0.015-0.219-0.027c0-3.12,0-6.228,0-9.368c7.318,0,14.628,0,21.999,0
		c0,1.169,0.003,2.328-0.007,3.488c-0.001,0.073-0.08,0.175-0.15,0.213c-0.973,0.525-1.951,1.042-2.958,1.576
		c0-0.685,0-1.411,0-2.163c-5.283,0-10.509,0-15.765,0c0,1.045,0,2.07,0,3.14C42.849,32.362,47.731,32.362,52.709,32.362z"/>
	<path fill="#FFFFFF" d="M63.129,49.166c0,3.883,0,7.686,0,11.523c-3.813,0-7.609,0-11.47,0c0.118-0.14,0.2-0.251,0.296-0.348
		c0.611-0.619,1.273-1.196,1.827-1.862c0.574-0.69,1.218-0.952,2.122-0.897c1.34,0.082,2.69,0.021,4.121,0.021
		c0-0.191,0-0.363,0-0.534c0-1.477-0.012-2.955,0.013-4.432c0.004-0.229,0.119-0.51,0.278-0.674
		C61.217,51.035,62.148,50.135,63.129,49.166z"/>
	<path fill="#FFFFFF" d="M34.836,41.846c2.808,0,5.562,0,8.388,0c-0.102,0.134-0.165,0.236-0.247,0.319
		c-0.832,0.838-1.656,1.685-2.51,2.5c-0.166,0.159-0.446,0.258-0.68,0.273c-0.6,0.038-1.204,0.013-1.859,0.013
		c0,0.637-0.017,1.224,0.007,1.809c0.014,0.338-0.09,0.578-0.332,0.818c-0.94,0.931-1.856,1.885-2.766,2.815
		C34.836,47.601,34.836,44.746,34.836,41.846z"/>
	<path fill="#FFFFFF" d="M31.585,32.332c-3.128,0-6.221,0-9.353,0c0-1.019,0-2.025,0-3.067c3.104,0,6.209,0,9.353,0
		C31.585,30.265,31.585,31.271,31.585,32.332z"/>
	<path fill="#FFFFFF" d="M22.228,45.014c3.14,0,6.234,0,9.361,0c0,1.026,0,2.032,0,3.069c-3.117,0-6.222,0-9.361,0
		C22.228,47.069,22.228,46.063,22.228,45.014z"/>
	<g>
		<path fill="#FFFFFF" d="M53.329,39.335c-0.739-0.742-1.427-1.433-2.135-2.143c1.674-2.036,3.438-3.901,6.294-4.15
			c1.468-0.128,2.883,0.082,4.136,0.827c2.296,1.365,4.002,3.221,4.408,5.995c0.348,2.374-0.332,4.449-1.99,6.154
			c-2.327,2.393-4.683,4.759-7.079,7.083c-2.968,2.88-7.871,2.795-10.754-0.657c0.842-0.825,1.683-1.648,2.556-2.504
			c0.252,0.222,0.565,0.546,0.925,0.805c1.747,1.258,4.145,1.073,5.764-0.5c1.984-1.927,3.94-3.884,5.87-5.864
			c1.652-1.696,1.621-4.322-0.011-6.154c-1.572-1.764-4.158-2.026-6.069-0.575C54.584,38.153,53.993,38.747,53.329,39.335z"/>
		<path fill="#FFFFFF" d="M55.293,44.494c-0.863,0.856-1.687,1.674-2.423,2.403c-0.784-0.425-1.523-0.988-2.355-1.242
			c-1.6-0.488-3.096-0.065-4.293,1.086c-2.028,1.95-4.021,3.938-5.977,5.96c-1.611,1.665-1.554,4.29,0.047,6.109
			c1.528,1.737,4.136,2.026,6.01,0.623c0.683-0.512,1.293-1.121,2-1.743c0.747,0.702,1.486,1.396,2.223,2.089
			c-2.726,3.516-6.266,5.739-10.672,3.277c-4.46-2.493-5.53-7.175-3.184-10.884c0.44-0.695,1.051-1.292,1.635-1.883
			c2.027-2.053,4.077-4.084,6.118-6.124C47.588,40.998,52.317,41.142,55.293,44.494z"/>
	</g>
</g>
</svg>
