<?xml version="1.0" encoding="utf-8"?>
<!-- Generator: Adobe Illustrator 17.0.0, SVG Export Plug-In . SVG Version: 6.00 Build 0)  -->
<!DOCTYPE svg PUBLIC "-//W3C//DTD SVG 1.1//EN" "http://www.w3.org/Graphics/SVG/1.1/DTD/svg11.dtd">
<svg version="1.1" id="Layer_1" xmlns="http://www.w3.org/2000/svg" xmlns:xlink="http://www.w3.org/1999/xlink" x="0px" y="0px"
	 width="80px" height="80px" viewBox="0 0 80 80" enable-background="new 0 0 80 80" xml:space="preserve">
<path d="M-103.66,10.914c0.024,0.026,0.042,0.065,0.072,0.078c2.089,0.871,2.663,1.709,2.665,3.966c0.005,6.763,0,13.526,0,20.289
	c0,0.158,0,0.317,0,0.565c-0.192-0.124-0.307-0.196-0.421-0.271c-0.857-0.563-1.697-1.154-2.577-1.677
	c-0.334-0.198-0.445-0.397-0.443-0.771c0.013-3.702,0.008-7.404,0.008-11.107c0-0.217,0-0.435,0-0.698c-14.894,0-29.746,0-44.646,0
	c0,12.55,0,25.11,0,37.738c0.223,0.01,0.452,0.03,0.682,0.03c5.975,0.002,11.95,0.006,17.925-0.009
	c0.442-0.001,0.667,0.139,0.891,0.523c0.568,0.973,1.206,1.906,1.86,2.921c-0.223,0-0.415,0-0.606,0c-7.845,0-15.689,0-23.534,0
	c-0.238,0-0.476,0.007-0.714,0.011c0-16.28,0-32.56,0-48.84c0.073-0.161,0.155-0.318,0.218-0.483
	c0.338-0.891,0.934-1.542,1.799-1.943c0.242-0.112,0.489-0.216,0.733-0.324C-134.387,10.914-119.023,10.914-103.66,10.914z"/>
<path d="M-114.44,65.914c-0.681-0.132-1.367-0.242-2.042-0.399c-6.684-1.557-11.623-7.447-11.928-14.212
	c-0.32-7.087,4.005-13.395,10.668-15.56c9.203-2.99,18.831,3.084,20.132,12.699c0.024,0.179,0.073,0.355,0.11,0.532
	c0,0.99,0,1.98,0,2.97c-0.036,0.159-0.084,0.316-0.105,0.477c-0.857,6.446-5.499,11.593-11.826,13.094
	c-0.673,0.16-1.359,0.267-2.039,0.399C-112.46,65.914-113.45,65.914-114.44,65.914z M-114.779,37.917c0,3.428,0,6.826,0,10.305
	c-3.472,0-6.883,0-10.282,0c0,1.248,0,2.413,0,3.64c3.434,0,6.832,0,10.291,0c0,3.423,0,6.784,0,10.159c1.204,0,2.346,0,3.549,0
	c0-3.401,0-6.761,0-10.186c3.458,0,6.855,0,10.255,0c0-1.243,0-2.421,0-3.66c-3.443,0-6.84,0-10.301,0c0-3.459,0-6.855,0-10.258
	C-112.461,37.917-113.589,37.917-114.779,37.917z"/>
<path fill="#FFFFFF" d="M-149.75,10.914c-0.244,0.108-0.491,0.212-0.733,0.324c-0.866,0.401-1.461,1.051-1.799,1.943
	c-0.063,0.165-0.145,0.322-0.218,0.483c0-0.917,0-1.833,0-2.75C-151.583,10.914-150.667,10.914-149.75,10.914z"/>
<path d="M-131.827,24.704c7.993,0,15.957,0,23.973,0c0,2.499,0,4.993,0,7.488c-1.136-0.208-2.247-0.411-3.398-0.622
	c0-1.129,0-2.26,0-3.428c-5.729,0-11.418,0-17.137,0c0,1.135,0,2.241,0,3.413c4.499,0,8.971,0,13.442,0
	c-0.001,0.016-0.003,0.033-0.004,0.049c-0.943,0.191-1.893,0.349-2.826,0.58c-2.048,0.506-3.93,1.396-5.69,2.554
	c-0.189,0.124-0.427,0.244-0.643,0.246c-2.474,0.018-4.948,0.013-7.423,0.012c-0.087,0-0.174-0.024-0.292-0.041
	C-131.827,31.533-131.827,28.135-131.827,24.704z"/>
<path d="M-145.587,31.518c0-1.123,0-2.217,0-3.362c3.41,0,6.805,0,10.242,0c0,1.109,0,2.216,0,3.362
	C-138.757,31.518-142.155,31.518-145.587,31.518z"/>
<path d="M-145.585,48.708c0-1.12,0-2.213,0-3.354c3.403,0,6.8,0,10.24,0c0,1.103,0,2.209,0,3.354
	C-138.756,48.708-142.153,48.708-145.585,48.708z"/>
<path d="M59.502,14.455c0.119,0.044,0.236,0.096,0.358,0.132c1.309,0.384,2.264,1.537,2.271,2.896c0.023,4.333,0.01,8.667,0.009,13
	c0,0.062-0.018,0.124-0.025,0.167c-1.007-0.185-2-0.367-3.071-0.564c0-1.988,0-4.06,0-6.162c-13.697,0-27.328,0-40.994,0
	c0,11.54,0,23.07,0,34.658c4.408,0,8.814,0,13.303,0c-0.223,1.084-0.432,2.097-0.647,3.139c-1.453,0-2.879-0.001-4.306,0
	c-3.841,0.004-7.682,0.01-11.522,0.015c0-14.874,0-29.748,0-44.623c0.04-0.102,0.088-0.203,0.119-0.308
	c0.272-0.942,0.84-1.636,1.733-2.047c0.261-0.12,0.538-0.204,0.808-0.305C31.526,14.455,45.514,14.455,59.502,14.455z"/>
<path d="M51.709,33.362c-1.042,1.062-2.001,2.047-2.974,3.017c-0.087,0.087-0.264,0.119-0.4,0.119
	c-4.759,0.006-9.519,0.005-14.278,0.004c-0.063,0-0.126-0.015-0.219-0.027c0-3.12,0-6.228,0-9.368c7.318,0,14.628,0,21.999,0
	c0,1.169,0.003,2.328-0.007,3.488c-0.001,0.073-0.08,0.175-0.15,0.213c-0.973,0.525-1.951,1.042-2.958,1.576
	c0-0.685,0-1.411,0-2.163c-5.283,0-10.509,0-15.765,0c0,1.045,0,2.07,0,3.14C41.849,33.362,46.731,33.362,51.709,33.362z"/>
<path d="M62.129,50.166c0,3.883,0,7.686,0,11.523c-3.813,0-7.609,0-11.47,0c0.118-0.14,0.2-0.251,0.296-0.348
	c0.611-0.619,1.273-1.196,1.827-1.862c0.574-0.69,1.218-0.952,2.122-0.897c1.34,0.082,2.69,0.021,4.121,0.021
	c0-0.191,0-0.363,0-0.534c0-1.477-0.012-2.955,0.013-4.432c0.004-0.229,0.119-0.51,0.278-0.674
	C60.217,52.035,61.148,51.135,62.129,50.166z"/>
<path d="M33.836,42.846c2.808,0,5.562,0,8.388,0c-0.102,0.134-0.165,0.236-0.247,0.319c-0.832,0.838-1.656,1.685-2.51,2.5
	c-0.166,0.159-0.446,0.258-0.68,0.273c-0.6,0.038-1.204,0.013-1.859,0.013c0,0.637-0.017,1.224,0.007,1.809
	c0.014,0.338-0.09,0.578-0.332,0.818c-0.94,0.931-1.856,1.885-2.766,2.815C33.836,48.601,33.836,45.746,33.836,42.846z"/>
<path d="M30.585,33.332c-3.128,0-6.221,0-9.353,0c0-1.019,0-2.025,0-3.067c3.104,0,6.209,0,9.353,0
	C30.585,31.265,30.585,32.271,30.585,33.332z"/>
<path d="M21.228,46.014c3.14,0,6.234,0,9.361,0c0,1.026,0,2.032,0,3.069c-3.117,0-6.222,0-9.361,0
	C21.228,48.069,21.228,47.063,21.228,46.014z"/>
<g>
	<path d="M52.329,40.335c-0.739-0.742-1.427-1.433-2.135-2.143c1.674-2.036,3.438-3.901,6.294-4.15
		c1.468-0.128,2.883,0.082,4.136,0.827c2.296,1.365,4.002,3.221,4.408,5.995c0.348,2.374-0.332,4.449-1.99,6.154
		c-2.327,2.393-4.683,4.759-7.079,7.083c-2.968,2.88-7.871,2.795-10.754-0.657c0.842-0.825,1.683-1.648,2.556-2.504
		c0.252,0.222,0.565,0.546,0.925,0.805c1.747,1.258,4.145,1.073,5.764-0.5c1.984-1.927,3.94-3.884,5.87-5.864
		c1.652-1.696,1.621-4.322-0.011-6.154c-1.572-1.764-4.158-2.026-6.069-0.575C53.584,39.153,52.993,39.747,52.329,40.335z"/>
	<path d="M54.293,45.494c-0.863,0.856-1.687,1.674-2.423,2.403c-0.784-0.425-1.523-0.988-2.355-1.242
		c-1.6-0.488-3.096-0.065-4.293,1.086c-2.028,1.95-4.021,3.938-5.977,5.96c-1.611,1.665-1.554,4.29,0.047,6.109
		c1.528,1.737,4.136,2.026,6.01,0.623c0.683-0.512,1.293-1.121,2-1.743c0.747,0.702,1.486,1.396,2.223,2.089
		c-2.726,3.516-6.266,5.739-10.672,3.277c-4.46-2.493-5.53-7.175-3.184-10.884c0.44-0.695,1.051-1.292,1.635-1.883
		c2.027-2.053,4.077-4.084,6.118-6.124C46.588,41.998,51.317,42.142,54.293,45.494z"/>
</g>
</svg>
