<?xml version="1.0" encoding="utf-8"?>
<!-- Generator: Adobe Illustrator 17.0.0, SVG Export Plug-In . SVG Version: 6.00 Build 0)  -->
<!DOCTYPE svg PUBLIC "-//W3C//DTD SVG 1.1//EN" "http://www.w3.org/Graphics/SVG/1.1/DTD/svg11.dtd">
<svg version="1.1" id="Layer_1" xmlns="http://www.w3.org/2000/svg" xmlns:xlink="http://www.w3.org/1999/xlink" x="0px" y="0px"
	 width="80px" height="80px" viewBox="0 0 80 80" enable-background="new 0 0 80 80" xml:space="preserve">
<g>
	<path d="M62.46,14.26c0.123,0.046,0.245,0.1,0.371,0.137c1.355,0.398,2.343,1.59,2.351,2.998c0.024,4.485,0.01,8.97,0.009,13.455
		c0,0.064-0.019,0.129-0.026,0.173c-1.042-0.191-2.07-0.38-3.178-0.584c0-2.058,0-4.202,0-6.377c-14.175,0-28.283,0-42.426,0
		c0,11.943,0,23.876,0,35.868c4.562,0,9.122,0,13.768,0c-0.231,1.122-0.447,2.171-0.669,3.249c-1.504,0-2.98-0.001-4.456,0
		c-3.975,0.005-7.95,0.01-11.925,0.016c0-15.394,0-30.788,0-46.182c0.041-0.106,0.091-0.21,0.123-0.319
		c0.282-0.975,0.869-1.693,1.794-2.119c0.27-0.124,0.557-0.211,0.836-0.315C33.507,14.26,47.983,14.26,62.46,14.26z"/>
	<path d="M32.576,33.826c-3.221,0-6.407,0-9.633,0c0-1.049,0-2.086,0-3.159c3.197,0,6.395,0,9.633,0
		C32.576,31.698,32.576,32.734,32.576,33.826z"/>
	<path d="M22.939,46.888c3.234,0,6.421,0,9.641,0c0,1.056,0,2.093,0,3.161c-3.21,0-6.408,0-9.641,0
		C22.939,49.005,22.939,47.969,22.939,46.888z"/>
	<path d="M37.631,56.138c1.12,0,2.067,0,3.137,0c0,2.096,0,4.154,0,6.284c7.563,0,15.004,0,22.512,0c0-7.467,0-14.913,0-22.403
		c-7.48,0-14.901,0-22.441,0c0,2.089,0,4.153,0,6.285c-1.091,0-2.065,0-3.207,0c0-1.285-0.001-2.6,0-3.915
		c0.001-0.716,0.004-1.432,0.007-2.147c0.009-2.192,1.282-3.487,3.496-3.492c6.544-0.013,13.089-0.006,19.633-0.008
		c0.818,0,1.637-0.025,2.454,0.003c2.007,0.068,3.294,1.385,3.295,3.396c0.006,7.362,0,14.725-0.006,22.087
		c-0.002,2.191-1.283,3.489-3.495,3.493c-6.544,0.013-13.089,0.006-19.633,0.008c-0.818,0-1.637,0.025-2.454-0.003
		c-2.007-0.068-3.284-1.385-3.296-3.396C37.622,60.295,37.631,58.259,37.631,56.138z"/>
	<path d="M37.689,52.899c0-1.15,0-2.155,0-3.261c5.086,0,10.144,0,15.42,0c-1.507-1.414-2.853-2.676-4.216-3.955
		c0.967-0.933,1.694-1.634,2.344-2.262c2.589,2.58,5.234,5.216,7.843,7.816c-2.612,2.588-5.267,5.218-7.879,7.805
		c-0.62-0.595-1.349-1.295-2.16-2.073c1.348-1.295,2.672-2.566,4.237-4.069C47.884,52.899,42.814,52.899,37.689,52.899z"/>
	<path d="M57.76,33.796c-6.411,0-12.753,0-19.172,0c0-1.054,0-2.096,0-3.174c6.362,0,12.729,0,19.172,0
		C57.76,31.657,57.76,32.699,57.76,33.796z"/>
</g>
</svg>
