<svg xmlns="http://www.w3.org/2000/svg" viewBox="0 0 288 288" width="288" height="288">
	<style>
		tspan { white-space:pre }
		.shp0 { fill: #ffffff } 
	</style>
	<g id="SvgjsG1016">
		<g id="Layer">
			<path id="Layer" class="shp0" d="M45 54.94C45.09 54.85 45.23 54.78 45.28 54.67C48.38 47.15 51.54 45.04 59.73 45.04C112.19 45.04 164.65 45.11 217.11 44.96C224.29 44.94 230.81 50.18 230.75 58.57C230.55 83.25 230.68 107.92 230.68 132.6C230.68 133.18 230.68 133.75 230.68 134.76C229.02 133.55 227.71 132.52 226.31 131.6C224.22 130.23 222.12 128.84 219.92 127.66C218.69 127.01 218.28 126.28 218.29 124.91C218.34 111.51 218.32 98.11 218.32 84.72C218.32 83.95 218.32 83.18 218.32 82.31C164.64 82.31 111.21 82.31 57.6 82.31C57.6 127.56 57.6 172.77 57.6 218.24C58.38 218.28 59.21 218.35 60.04 218.35C81.55 218.35 103.06 218.37 124.57 218.31C126.16 218.31 126.98 218.8 127.78 220.19C129.82 223.7 132.12 227.05 134.48 230.71C133.68 230.71 132.99 230.71 132.3 230.71C104.06 230.71 75.82 230.71 47.57 230.71C46.72 230.71 45.86 230.74 45 230.75C45 172.15 45 113.54 45 54.94Z" />
			<path id="Layer" fill-rule="evenodd" class="shp0" d="M182.02 243.04C179.56 242.56 177.09 242.16 174.66 241.6C150.6 235.99 132.82 214.79 131.72 190.44C130.57 164.92 146.14 142.21 170.13 134.42C203.26 123.66 237.92 145.52 242.6 180.14C242.69 180.78 242.87 181.42 243 182.06C243 185.62 243 189.18 243 192.75C242.87 193.32 242.7 193.89 242.62 194.46C239.54 217.67 222.83 236.2 200.05 241.6C197.63 242.18 195.16 242.56 192.71 243.04C189.14 243.04 185.58 243.04 182.02 243.04ZM188.11 214.98C194.2 214.78 200.39 212.76 206.09 209.19C212.86 204.95 218.67 199.62 223.96 193.67C226.03 191.34 226.15 189.59 224.22 187.17C218.72 180.3 212.23 174.5 204.49 170.31C193 164.07 181.36 163.8 169.78 170.31C162.57 174.36 156.41 179.68 151 185.9C147.96 189.39 147.86 190.99 150.92 194.46C156.36 200.64 162.44 206.08 169.73 210.02C175.25 213.01 181.1 214.91 188.11 214.98Z" />
			<path id="Layer" class="shp0" d="M119.42 131.58C119.42 119.26 119.42 107.03 119.42 94.68C148.2 94.68 176.87 94.68 205.73 94.68C205.73 103.68 205.73 112.65 205.73 121.64C201.63 120.89 197.63 120.16 193.49 119.4C193.49 115.33 193.49 111.26 193.49 107.06C172.86 107.06 152.38 107.06 131.79 107.06C131.79 111.15 131.79 115.13 131.79 119.35C148 119.35 164.09 119.35 180.18 119.35C180.18 119.42 180.18 119.49 180.18 119.57C177.1 120.15 173.99 120.63 170.95 121.35C163.16 123.2 156 126.5 149.34 130.91C148.72 131.33 147.91 131.69 147.19 131.69C138.29 131.75 129.38 131.73 120.47 131.73C120.16 131.73 119.84 131.64 119.42 131.58ZM106.81 107.05C106.81 111.12 106.81 115.07 106.81 119.18C94.51 119.18 82.29 119.18 69.92 119.18C69.92 115.15 69.92 111.17 69.92 107.05C82.24 107.05 94.48 107.05 106.81 107.05ZM69.89 181.1C69.89 177.06 69.89 173.12 69.89 169.02C82.15 169.02 94.38 169.02 106.76 169.02C106.76 172.99 106.76 176.98 106.76 181.1C94.47 181.1 82.24 181.1 69.89 181.1ZM174.76 190.16C174.79 183.34 180.29 177.83 187.08 177.8C193.93 177.77 199.51 183.39 199.49 190.28C199.46 197.16 193.85 202.69 186.96 202.62C180.17 202.54 174.73 196.98 174.76 190.16Z" />
		</g>
	</g>
</svg>