<svg xmlns="http://www.w3.org/2000/svg" viewBox="0 0 80 80" width="80" height="80">
	<style>
		tspan { white-space:pre }
		.shp0 { fill: #000000 } 
	</style>
	<g id="Layer">
		<path id="Layer" class="shp0" d="M12.5 15.26C12.53 15.24 12.56 15.22 12.58 15.19C13.44 13.1 14.32 12.51 16.59 12.51C31.16 12.51 45.73 12.53 60.31 12.49C62.3 12.48 64.12 13.94 64.1 16.27C64.04 23.12 64.08 29.98 64.08 36.83C64.08 36.99 64.08 37.15 64.08 37.43C63.62 37.1 63.25 36.81 62.86 36.56C62.28 36.17 61.7 35.79 61.09 35.46C60.75 35.28 60.63 35.08 60.63 34.7C60.65 30.98 60.64 27.25 60.64 23.53C60.64 23.32 60.64 23.11 60.64 22.87C45.73 22.87 30.89 22.87 16 22.87C16 35.43 16 47.99 16 60.62C16.22 60.63 16.45 60.65 16.68 60.65C22.65 60.65 28.63 60.66 34.6 60.64C35.04 60.64 35.27 60.78 35.49 61.16C36.06 62.14 36.7 63.07 37.35 64.09C37.13 64.09 36.94 64.09 36.75 64.09C28.91 64.09 21.06 64.09 13.21 64.09C12.98 64.09 12.74 64.09 12.5 64.1C12.5 47.82 12.5 31.54 12.5 15.26Z" />
		<path id="Layer" fill-rule="evenodd" class="shp0" d="M50.56 67.51C49.88 67.38 49.19 67.27 48.52 67.11C41.83 65.55 36.9 59.66 36.59 52.9C36.27 45.81 40.6 39.5 47.26 37.34C56.46 34.35 66.09 40.42 67.39 50.04C67.41 50.22 67.46 50.39 67.5 50.57C67.5 51.56 67.5 52.55 67.5 53.54C67.46 53.7 67.42 53.86 67.39 54.02C66.54 60.46 61.9 65.61 55.57 67.11C54.9 67.27 54.21 67.38 53.53 67.51C52.54 67.51 51.55 67.51 50.56 67.51ZM52.25 59.72C53.95 59.66 55.66 59.1 57.25 58.11C59.13 56.93 60.74 55.45 62.21 53.8C62.78 53.15 62.82 52.66 62.28 51.99C60.76 50.08 58.95 48.47 56.8 47.31C53.61 45.58 50.38 45.5 47.16 47.31C45.16 48.43 43.45 49.91 41.94 51.64C41.1 52.61 41.07 53.05 41.92 54.02C43.43 55.73 45.12 57.24 47.15 58.34C48.68 59.17 50.3 59.7 52.25 59.72Z" />
		<path id="Layer" class="shp0" d="M33.17 36.55C33.17 33.13 33.17 29.73 33.17 26.3C41.17 26.3 49.13 26.3 57.15 26.3C57.15 28.8 57.15 31.29 57.15 33.79C56.01 33.58 54.9 33.38 53.75 33.17C53.75 32.04 53.75 30.9 53.75 29.74C48.02 29.74 42.33 29.74 36.61 29.74C36.61 30.87 36.61 31.98 36.61 33.15C41.11 33.15 45.58 33.15 50.05 33.15C50.05 33.17 50.05 33.19 50.05 33.21C49.19 33.38 48.33 33.51 47.48 33.71C45.32 34.22 43.33 35.14 41.48 36.37C41.31 36.48 41.09 36.58 40.89 36.58C38.41 36.6 35.94 36.59 33.46 36.59C33.38 36.59 33.29 36.57 33.17 36.55Z" />
		<path id="Layer" class="shp0" d="M29.67 29.74C29.67 30.87 29.67 31.96 29.67 33.1C26.25 33.1 22.86 33.1 19.42 33.1C19.42 31.99 19.42 30.88 19.42 29.74C22.84 29.74 26.24 29.74 29.67 29.74Z" />
		<path id="Layer" class="shp0" d="M19.41 50.3C19.41 49.18 19.41 48.09 19.41 46.95C22.82 46.95 26.22 46.95 29.66 46.95C29.66 48.05 29.66 49.16 29.66 50.3C26.24 50.3 22.84 50.3 19.41 50.3Z" />
		<path id="Layer" class="shp0" d="M48.55 52.82C48.55 50.93 50.08 49.4 51.97 49.39C53.87 49.38 55.42 50.94 55.41 52.86C55.41 54.77 53.85 56.3 51.93 56.28C50.05 56.26 48.54 54.72 48.55 52.82Z" />
	</g>
</svg>